<?xml version="1.0" encoding="utf-8"?>
<!-- Generator: Adobe Illustrator 13.0.2, SVG Export Plug-In  -->
<!DOCTYPE svg PUBLIC "-//W3C//DTD SVG 1.1//EN" "http://www.w3.org/Graphics/SVG/1.1/DTD/svg11.dtd" [
	<!ENTITY ns_flows "http://ns.adobe.com/Flows/1.0/">
]>
<svg version="1.1" xmlns="http://www.w3.org/2000/svg" xmlns:xlink="http://www.w3.org/1999/xlink" xmlns:a="http://ns.adobe.com/AdobeSVGViewerExtensions/3.0/" x="0px" y="0px" width="48" viewBox="-0.952 -0.728 120 56" xml:space="preserve">
<defs>
</defs>
<path d="M0,29.685v-3.78h0.754c0.33,1.091,0.818,1.919,1.465,2.486c0.663,0.566,1.512,0.866,2.384,0.842
	c0.757,0.027,1.5-0.213,2.098-0.679c0.534-0.409,0.842-1.048,0.831-1.722c0.012-0.319-0.056-0.636-0.198-0.922
	c-0.165-0.276-0.396-0.507-0.671-0.673c-0.364-0.242-1.077-0.485-2.138-0.727c-0.393-0.091-0.692-0.162-0.898-0.213
	c-1.245-0.316-2.149-0.78-2.712-1.393c-0.564-0.612-0.846-1.434-0.848-2.465c0-1.206,0.376-2.181,1.127-2.926
	c0.751-0.744,1.736-1.118,2.953-1.122c0.471-0.003,0.94,0.067,1.389,0.209c0.435,0.141,0.845,0.352,1.213,0.624l0.707-0.571h0.618
	l0.077,3.404H7.503c-0.251-0.999-0.67-1.76-1.256-2.282c-0.607-0.529-1.392-0.81-2.196-0.784c-0.64-0.026-1.271,0.161-1.793,0.533
	c-0.441,0.304-0.704,0.807-0.702,1.343c0,0.813,0.86,1.41,2.582,1.79l0.533,0.116c1.604,0.375,2.731,0.905,3.38,1.591
	s0.969,1.665,0.962,2.937c0,1.302-0.414,2.382-1.242,3.244C6.958,29.4,5.82,29.87,4.642,29.836
	c-0.568,0.009-1.134-0.064-1.682-0.217c-0.491-0.148-0.951-0.386-1.358-0.698l-0.889,0.764H0z"/>
<path d="M14.021,16.66v2.308h1.58v0.598h-1.587v5.387c-0.022,0.237,0.025,0.476,0.137,0.687c0.128,0.138,0.315,0.205,0.501,0.182
	c0.24,0.004,0.466-0.11,0.605-0.306c0.171-0.243,0.271-0.53,0.286-0.827h0.531c-0.018,0.631-0.316,1.221-0.812,1.611
	c-0.502,0.404-1.15,0.605-1.944,0.604c-0.747,0-1.259-0.121-1.536-0.364c-0.278-0.242-0.417-0.77-0.417-1.582v-5.393h-1.131v-0.598
	h1.131V16.66H14.021z"/>
<path d="M9.863,29.685v-1.474h6.545v1.474H9.863z"/>
<polygon points="107.148,24.811 39.244,49.527 37.214,53.79 "/>
<path d="M110.813,19.473c0.48-1.613,2.257-6.32,4.869-9.286c-2.887,1.898-7.674,1.931-8.451,0.995c0,0-5.883,13.585-7.817,9.873
	c-0.563-1.091-0.531-1.636-0.442-2.593c3.027-3.598,8.363-9.298,8.67-16.445c0.01-1.272-0.779-2.018-1.938-2.016
	c-4.685,0.225-6.816,6.636-7.09,7.58c-1.166,3.646-1.699,10.409-1.777,11.246c-0.674,1.973-1.445,2.545-2.047,2.609
	c0.042-0.133,0.084-0.268,0.124-0.406c0,0,1.026-4.206,0.787-5.146c-0.947-3.705-7.216,2.749-6.445,3.989
	c0.532,0.856,2.042,1.878,3.262,2.267c-2.983,11.3-6.131-0.14-3.314-3.636l-3.04,1.842c-2.125,6.964-3.256,8.078-3.389,8.085
	c-0.631,0.075,1.049-5.89,0.908-7.338c-0.207-3.091-3.443-0.8-3.492-0.774c2.316-3.042,5.375-6.232,5.545-10.167
	c0.037-1.04-0.096-4.716-2.25-4.642c-4.83,0.233-6.601,6.627-6.89,7.602c-0.663,2.076-1.109,5.167-1.388,7.66
	c-0.376,2.246-0.393,7.704-0.713,10.045c-0.463,0.679-3.976,3.808-3.93-0.106c0.078-1.597,1.441-8.137,1.712-9.03l-2.604,1.422
	c-0.234,0.802-0.665,2.3-0.8,3.013c-0.157-0.004-0.314-0.02-0.469-0.045c0.201-1.272-0.85-3.264-1.31-3.754
	c-0.708,0-2.728,2.383-2.728,2.383c-0.148,0.12-0.096,1.637,1.139,2.182c0.219,0.118,0.456,0.197,0.701,0.234
	c-3.582,7.862-10.564,13.796-9.903,7.187c0,0,9.313-4.152,4.997-9.88c-2.209-0.645-5.735,0.957-7.091,8.158
	c-0.232-0.118-2.763,0.235-0.545-3.106c0,0-4.718,1.707-3.165,4c-2.32,6.686-5.933,13.184-5.273,1.895c3.389-4.027,9.129-10,9.48-18
	c0.038-1.402-0.987-2.26-2.167-2.26c-5.245,0.253-7.636,7.433-7.943,8.489c-4.098,13.361-2.847,32.496,7.682,11.283
	c0.496,0.045,0.996,0.028,1.487-0.051c-1.091,10.131,7.599,5.377,14.181-7.52l0.7,0.04c-0.063,0.474-2.316,7.234-0.845,8.267
	c0.216,0.176,0.484,0.272,0.764,0.277c2.514-0.115,5.734-3.566,5.734-3.566c-0.099,0.895-0.044,0.76-0.155,1.744l2.236-0.797
	c0.318-2.06,0.495-8.525,1.677-9.69c0.83-0.769,3.369-1.42,2.818,0.875c-2.702,9.765,2.321,8.545,4.861,1.227
	c0.144,0.75,0.062,2.031,1.133,2.706c0.909,0.574,4.778,1.587,7.5-5.677c0.789-0.049,1.776-0.545,2.675-1.873
	c0.194,1.5,2.896,11.606,10.565-7.526c1.785,0.31,2.747,0.16,2.747,0.16c-2.591,6.104-3.272,8.218-3.614,9.073
	c23.699-14.883-7.17,37.389-0.546,10.674c0.128-0.516,0.288-1.023,0.479-1.52c1.56-4.067,4.058-8.236,4.058-8.236
	c-16.363,19.664-5.732,19.412-3.49,18.844C116.972,39.847,124.089,12.078,110.813,19.473z M99.089,16.305
	c1.24-10.307,3.625-13.676,3.729-13.676C107.392,4.043,98.809,18.64,99.089,16.305z M58.672,25.204
	c3.944,3.354-2.182,6.587-2.182,6.587C56.934,26.718,58.672,25.204,58.672,25.204z M45.467,32.811
	c1.398-11.682,4.109-15.499,4.227-15.499C54.875,18.915,45.151,35.458,45.467,32.811z M77.237,21.769
	c1.287-10.755,3.783-14.268,3.893-14.268C85.894,8.976,76.939,24.211,77.237,21.769z M92.735,21.285
	c-3.609-1.636,0.896-5.706,1.131-6c0.004,0.28,0.186,2.477-1.138,6H92.735z"/>
<path d="M36.329,13.001c-1.697-0.534-13.682,2.728-18.1,17.837l4.692-2.627c0.417-4.419,8.322-12.841,8.891-12.661
	c15.153,6.742,2.222,33.246-0.985,36.582c-4.744,4.784-8.816-18.046,2.774-28.885c0,0,0-0.773-5.467,3.625
	c-7.702,6.519-9.694,26.391-2.209,27.56C40.129,56.911,48.092,17.302,36.329,13.001z"/>
</svg>
