<?xml version="1.0" encoding="UTF-8" standalone="no"?>
<!-- Created with Inkscape (http://www.inkscape.org/) -->

<svg
   version="1.1"
   id="svg59"
   width="48"
   viewBox="0 0 799.84235 800.07843"
   sodipodi:docname="1920px-Fub-logo.svg.png"
   xmlns:inkscape="http://www.inkscape.org/namespaces/inkscape"
   xmlns:sodipodi="http://sodipodi.sourceforge.net/DTD/sodipodi-0.dtd"
   xmlns="http://www.w3.org/2000/svg"
   xmlns:svg="http://www.w3.org/2000/svg">
  <defs
     id="defs63" />
  <sodipodi:namedview
     id="namedview61"
     pagecolor="#ffffff"
     bordercolor="#000000"
     borderopacity="0.25"
     inkscape:showpageshadow="2"
     inkscape:pageopacity="0.0"
     inkscape:pagecheckerboard="0"
     inkscape:deskcolor="#d1d1d1"
     showgrid="false" />
  <g
     inkscape:groupmode="layer"
     inkscape:label="Image"
     id="g65"
     transform="translate(-584.87115,803.47003)">
    <path
       style="fill:#00000;fill-opacity:1;stroke-width:1.57691"
       d="M 947.00128,-4.3908899 C 871.51681,-11.487902 806.74313,-36.111759 747.48909,-80.236006 704.97847,-111.89204 665.03098,-155.7406 638.28897,-200.09999 c -9.22109,-15.29589 -14.33499,-26.16859 -25.84402,-54.94734 -2.60091,-6.50363 -6.09686,-14.69285 -7.7688,-18.19828 -4.23554,-8.88033 -13.14595,-45.10861 -16.65792,-67.72849 -4.12124,-26.54405 -4.21462,-97.40689 -0.16308,-123.76611 6.45434,-41.99176 17.33278,-76.7396 35.78568,-114.30626 20.35637,-41.44179 41.07942,-70.06936 76.53312,-105.72568 25.46707,-25.61258 39.37055,-37.18361 66.20149,-55.09547 60.45372,-40.35786 125.3425,-60.54103 203.49485,-63.29552 70.91031,-2.49925 132.05191,10.2188 191.62611,39.86022 42.1217,20.95769 75.0604,45.47668 111.2878,82.84098 62.315,64.26991 97.6755,136.61069 108.5286,222.02829 8.6565,68.12756 0.4883,143.51666 -21.104,194.78098 -3.637,8.63512 -8.7184,20.66663 -11.2922,26.73668 -16.2046,38.21942 -41.1133,74.63689 -75.3829,110.21261 -63.9088,66.34451 -139.8195,106.252089 -226.6821,119.1705998 -25.0839,3.7306631 -76.41025,5.3456267 -99.85032,3.1418903 z m 97.78342,-10.1271961 c 83.6991,-12.584287 155.1847,-49.228144 217.4366,-111.459034 63.825,-63.80353 100.1876,-136.66704 112.4077,-225.24515 3.1288,-22.67899 2.7005,-86.03025 -0.7406,-109.57633 -12.6136,-86.30624 -48.6499,-157.18919 -112.2252,-220.74649 -61.0968,-61.07927 -131.7566,-97.37055 -215.3002,-110.57931 -26.1454,-4.13377 -98.97938,-4.15275 -123.80788,-0.0323 -84.93378,14.09541 -149.76396,46.82521 -211.13135,106.5906 -74.78028,72.82814 -113.90419,157.47726 -119.07872,257.64071 -6.32155,122.36579 33.19623,223.96493 119.5533,307.36841 21.41678,20.684293 36.45394,32.749783 60.82547,48.805104 50.17727,33.055394 105.20538,52.268661 170.33454,59.472974 18.82043,2.081876 82.27684,0.685023 101.72634,-2.239205 z m -93.84048,-1.904085 c -2.60232,-0.30331 -11.47395,-1.308069 -19.71457,-2.232858 C 866.17301,-25.955741 798.40202,-54.790689 744.12408,-98.264016 682.79135,-147.38781 637.2361,-211.74949 614.89007,-280.84933 c -12.92819,-39.97735 -18.24549,-75.64908 -18.24549,-122.40198 0,-48.72791 5.95498,-86.57361 20.21824,-128.49302 35.38992,-104.01024 127.45314,-198.05837 231.52977,-236.52163 19.07278,-7.04866 52.47804,-15.49096 74.95111,-18.94192 25.49928,-3.91564 79.569,-4.77507 107.059,-1.70166 94.7169,10.58948 173.4198,51.41848 241.9415,125.51294 69.4602,75.10942 104.008,169.9169 99.9671,274.33502 -3.3354,86.18894 -30.0198,159.32265 -82.3483,225.69181 -12.5938,15.97273 -52.2623,55.18184 -68.7148,67.918876 -71.0166,54.978779 -148.7307,80.7029 -241.12641,79.814998 -13.44522,-0.129253 -26.57517,-0.483041 -29.17757,-0.786275 z m 69.39558,-3.704754 c 105.0003,-9.518186 193.7566,-57.152143 263.6443,-141.492995 46.0899,-55.62157 73.0596,-118.39784 82.811,-192.7556 2.5335,-19.31848 2.5335,-78.43311 0,-97.75158 -12.3496,-94.17035 -53.5989,-172.63464 -124.6193,-237.05111 -57.6667,-52.30443 -122.285,-83.19662 -198.967,-95.12061 -25.6333,-3.98591 -90.99636,-3.99315 -116.71075,-0.0129 -86.29088,13.35671 -156.87655,49.82998 -217.68825,112.48465 -61.96824,63.84621 -96.16205,134.35498 -106.54538,219.69996 -3.28363,26.98943 -2.40302,86.74437 1.64964,111.9413 12.92419,80.35439 48.92786,149.5643 108.70451,208.96295 21.36299,21.22791 35.67598,33.213862 57.73952,48.35212 48.17494,33.053905 105.38523,54.550583 162.44857,61.039929 8.24078,0.937185 17.11249,1.952024 19.71473,2.255334 10.70928,1.248035 51.63861,0.91523 67.81841,-0.551438 z m -37.39015,-6.396234 c -1.48054,-0.862961 -3.94403,-5.539469 -5.47418,-10.392125 -2.99264,-9.490782 -7.42474,-13.747273 -13.42849,-12.896558 l -3.63972,0.515747 -0.4774,8.295018 c -0.36548,6.352701 0.096,8.51492 1.97154,9.234366 1.34683,0.516642 2.44878,1.927681 2.44878,3.135618 0,2.31604 -11.4331,3.156675 -16.49934,1.213164 l -2.56287,-0.983106 2.82801,-3.123596 c 4.07542,-4.501034 5.28813,-40.090519 1.4168,-41.575609 -6.30822,-2.419821 -1.2176,-3.786982 14.10057,-3.786982 h 16.63193 l 3.87141,3.869933 c 5.39671,5.395051 5.10448,12.041982 -0.77324,17.587798 l -4.64437,4.38201 3.06691,2.147435 c 1.68685,1.181056 3.86692,5.322703 4.84445,9.203678 0.97742,3.880974 3.18372,8.04099 4.90247,9.244596 5.9642,4.175921 -1.94642,7.79667 -8.58326,3.928613 z m -7.91024,-30.745453 c 6.38953,-4.473923 2.75093,-13.764934 -6.15665,-15.720706 -6.1666,-1.35395 -7.63053,0.68745 -7.66285,10.685997 l -0.0248,7.489036 h 5.1692 c 2.8429,0 6.74649,-1.104443 8.67449,-2.454327 z m 28.86459,28.8398 c -4.58938,-2.340831 -7.63979,-10.04349 -5.01632,-12.6662 1.31102,-1.310534 2.97482,-0.454517 6.39712,3.29123 6.0449,6.615913 14.4297,7.10881 18.3809,1.080401 l 2.6099,-3.982003 -2.824,-3.119414 c -1.5533,-1.715694 -6.9341,-4.61752 -11.9573,-6.44843 -5.0232,-1.830983 -10.2311,-4.541952 -11.57331,-6.024301 -5.39589,-5.96058 -2.43221,-17.455215 5.25211,-20.370582 6.3765,-2.41912 20.4777,-3.158862 22.1363,-1.161254 0.7982,0.961457 1.94,3.695219 2.5376,6.07503 1.3341,5.313302 -2.0408,5.936781 -6.3529,1.173663 -3.1965,-3.530945 -11.6687,-4.259464 -14.6676,-1.26131 -2.4607,2.459808 -2.4336,8.602388 0.046,10.233928 1.0657,0.701541 6.5662,3.07857 12.2229,5.282299 8.948,3.485671 10.5194,4.71586 12.0846,9.459795 2.4617,7.462 -0.3078,14.076717 -7.3989,17.669616 -6.3245,3.204612 -16.4048,3.55825 -21.8764,0.767532 z m -84.50322,-2.627116 c -7.80703,-1.499522 -15.9095,-3.286973 -18.00558,-3.972071 l -3.81108,-1.245644 3.44195,-2.595381 c 4.62465,-3.487165 11.14208,-35.348207 8.19555,-40.064723 -1.02747,-1.644753 -1.43171,-3.426766 -0.89824,-3.960043 0.94569,-0.94539 33.56639,4.017715 35.91794,5.464734 0.6505,0.400362 1.18287,2.814524 1.18287,5.364803 0,5.330641 -3.94231,6.452991 -5.49462,1.564225 -1.01801,-3.20636 -2.53623,-3.896234 -12.12562,-5.509599 -6.54083,-1.10044 -6.91849,-0.750769 -8.94984,8.287092 l -1.4665,6.524928 5.65251,1.060067 c 4.71359,0.883974 6.02623,0.49749 7.90195,-2.326583 4.86113,-7.318752 6.42238,-2.471272 3.2546,10.104914 -2.05557,8.160837 -3.76594,8.924262 -5.09622,2.274823 -0.80125,-4.004554 -1.67798,-4.729899 -5.71729,-4.729899 -2.62406,0 -5.2945,-0.177341 -5.93436,-0.394182 -1.59091,-0.539043 -3.71063,15.072142 -2.24537,16.536871 0.64515,0.644924 4.61929,1.816198 8.83156,2.602847 l 7.65847,1.430304 3.78269,-3.781365 c 4.67692,-4.675239 5.21638,-4.694952 5.21638,-0.190632 0,3.684891 -4.04809,10.724406 -6.0038,10.439988 -0.60134,-0.08751 -7.481,-1.385949 -15.28795,-2.885474 z m 125.88022,-4.898427 c 2.3746,-3.388749 2.3185,-3.91928 -3.1154,-29.502244 -1.6119,-7.589049 -3.1697,-11.430623 -4.6351,-11.430623 -3.6796,0 -2.4731,-3.130452 1.8379,-4.768929 4.8823,-1.855534 13.3033,-2.030437 13.3033,-0.276315 0,0.693719 -0.6642,1.93532 -1.4762,2.759122 -0.9178,0.931159 -0.597,6.567748 0.848,14.899228 3.4309,19.782215 5.1397,25.226183 7.9176,25.226183 3.6923,0 1.678,3.707514 -2.6746,4.923442 -2.1043,0.587877 -6.173,1.139539 -9.0414,1.226007 l -5.2152,0.15718 z m 37.357,-5.931487 c 0,-0.69376 0.766,-2.026993 1.7022,-2.962906 1.2178,-1.21757 0.2432,-6.912129 -3.4278,-20.023266 l -5.1301,-18.321762 h -3.7499 c -2.7948,0 -4.3372,1.405447 -6.0564,5.518236 -1.2684,3.035023 -2.9744,5.518226 -3.7909,5.518226 -2.0137,0 -3.9497,-10.948066 -2.2194,-12.550333 0.7593,-0.703086 9.4513,-3.505877 19.3151,-6.228437 l 17.9346,-4.950107 2.1243,2.798777 c 2.3888,3.147381 2.9616,9.893638 0.8406,9.893638 -0.7616,0 -2.2679,-1.064228 -3.3477,-2.364953 -1.08,-1.300735 -4.0986,-2.364963 -6.7083,-2.364963 h -4.7444 l 0.9564,5.912394 c 1.8931,11.701095 9.3985,33.503569 11.5334,33.503569 4.0678,0 2.0725,3.332896 -3.3522,5.598683 -5.9872,2.500699 -11.8795,3.008232 -11.8795,1.023204 z M 864.50129,-48.62541 c -0.51806,-2.970298 -1.41926,-14.623898 -2.00266,-25.896858 -0.5834,-11.272956 -1.78247,-21.400299 -2.66458,-22.505198 -0.88212,-1.104895 -1.2195,-2.393113 -0.74973,-2.862739 1.27878,-1.278325 12.64988,2.099413 16.2044,4.813482 l 3.10561,2.371291 -3.54863,0.998115 -3.54864,0.998113 v 15.582493 c 0,8.570372 0.56197,15.582499 1.24878,15.582499 1.4506,0 12.45264,-11.332631 17.38336,-17.905672 2.66981,-3.559068 3.02833,-5.158928 1.7086,-7.624071 -2.48829,-4.647808 -0.6972,-5.182973 7.22459,-2.158632 6.87831,2.625949 9.49586,5.615447 4.91671,5.615447 -1.21862,0 -10.34273,8.638276 -20.27578,19.196169 l -18.06011,19.196146 z m 250.67511,-4.218109 c 1.5139,-3.13487 1.7388,-18.209486 0.5822,-39.021763 -0.6901,-12.419218 -0.4659,-14.189758 1.7973,-14.189758 1.4221,0 10.4916,6.917509 20.1545,15.372224 10.009,8.757682 18.9629,15.37222 20.8089,15.37222 4.9244,0 2.7917,3.477141 -4.6841,7.636977 -7.2925,4.057741 -13.1772,3.661333 -9.6006,-0.646724 1.679,-2.022528 1.4608,-2.990438 -1.2952,-5.745697 l -3.3144,-3.313425 -7.5959,3.284579 c -4.1779,1.806511 -8.2412,4.304044 -9.0299,5.550047 -1.9703,3.113076 0,7.552508 3.8076,8.545887 4.7304,1.23661 3.8277,3.196429 -3.0993,6.729293 -7.813,3.984466 -10.3097,4.109239 -8.5311,0.42614 z m 12.9112,-35.013737 c -7.6176,-6.788817 -8.6061,-5.979547 -6.8659,5.620903 l 1.034,6.893725 6.3205,-3.223276 6.3202,-3.223297 z M 826.74196,-59.00575 c -5.909,-2.450119 -8.11699,-6.845009 -3.43892,-6.845009 3.52147,0 18.58795,-32.240146 17.35725,-37.142011 -1.28425,-5.11515 0.59695,-5.66068 8.03728,-2.33069 7.86337,3.51936 9.89946,6.267826 5.49606,7.418952 -2.12727,0.556106 -5.37478,5.239643 -9.53363,13.749421 -9.09594,18.611887 -9.91638,21.144685 -8.00545,24.714107 2.06229,3.852069 -1.31444,4.000364 -9.91259,0.43523 z m -20.10787,-11.572958 c -0.92791,-1.733218 -3.23138,-13.085019 -5.1188,-25.226203 -1.88745,-12.141199 -3.81469,-22.070259 -4.28279,-22.064579 -0.46811,0.006 -4.18209,5.8033 -8.25332,12.88361 -5.56599,9.679829 -7.04032,13.549297 -5.94329,15.598457 2.22158,4.149633 -1.94595,4.881025 -7.74036,1.358417 -5.56514,-3.383222 -6.43655,-6.20124 -1.91761,-6.20124 4.29197,0 22.48105,-30.712074 21.20324,-35.801504 -1.20304,-4.79178 2.70125,-4.82544 7.7656,-0.067 3.21294,3.01886 4.17839,6.48394 6.47951,23.25542 1.4872,10.839378 3.31042,20.315985 4.05162,21.059111 2.10908,2.114673 14.45262,-21.177501 13.45785,-25.394871 -0.98404,-4.1719 0.78317,-4.45269 7.18753,-1.14199 5.26347,2.72093 6.22949,7.05438 1.57256,7.05438 -2.25623,0 -6.10921,5.0632 -14.39752,18.919662 -6.22423,10.405807 -11.55541,18.919656 -11.84697,18.919656 -0.2916,0 -1.28937,-1.418096 -2.21725,-3.151307 z M 1173.389,-82.097973 c 0.6539,-2.604186 -1.4103,-7.630978 -7.2834,-17.737188 -10.8917,-18.742199 -11.5407,-19.396499 -15.6001,-15.724119 -1.7899,1.61921 -3.2033,4.8775 -3.2033,7.38365 0,7.28184 -4.978,4.81724 -7.0657,-3.4983 l -1.0104,-4.02464 8.3753,-4.50449 c 4.6062,-2.47748 12.1851,-6.91529 16.8417,-9.86182 l 8.4666,-5.35732 3.7565,3.52779 c 2.0659,1.94028 3.7564,4.8413 3.7564,6.44672 v 2.91894 l -4.4898,-2.32102 c -5.2969,-2.73821 -11.2819,-1.63668 -11.2819,2.07643 0,1.44206 4.0809,9.31391 9.0686,17.49303 6.2941,10.320932 10.1915,15.1327 12.7377,15.726106 l 3.6688,0.855013 -3.6688,3.343994 c -7.9413,7.23823 -14.4768,8.867123 -13.0682,3.257224 z m -236.34988,-5.1061 C 860.81834,-97.585562 790.66504,-137.41274 737.85367,-200.28487 c -37.97673,-45.21145 -60.24069,-94.65161 -69.45852,-154.2423 -3.78244,-24.4522 -3.81169,-74.37251 -0.0575,-98.18849 10.54317,-66.88532 37.42206,-120.95839 84.64885,-170.29064 53.54862,-55.93599 115.75672,-87.75912 190.07184,-97.23303 21.2606,-2.71035 66.13836,-2.31564 88.15436,0.77532 68.8456,9.66566 126.9286,38.95393 178.0937,89.80359 63.2194,62.82943 94.1355,137.18735 94.1355,226.40911 0,52.31864 -10.2131,97.83227 -31.428,140.05349 -16.4605,32.75959 -33.339,56.07429 -60.5051,83.57713 -53.4654,54.12843 -113.6981,84.118067 -187.1848,93.198815 -18.1877,2.247443 -68.34113,1.798008 -87.2849,-0.782198 z m 96.70668,-3.167523 c 76.2318,-11.422314 142.958,-49.528624 194.72,-111.201384 10.8159,-12.8867 22.1955,-28.24814 20.9258,-28.24814 -0.3179,0 -5.0251,5.64391 -10.4604,12.54203 -33.219,42.15965 -91.5861,69.41311 -148.7084,69.43681 -8.4066,0.003 -15.7009,0.67998 -16.2099,1.50331 -3.1836,5.14925 39.3641,3.69095 63.2452,-2.16772 8.7888,-2.1561 22.5895,-6.769 30.6688,-10.25093 8.0788,-3.48195 14.8894,-6.13058 15.1343,-5.88591 0.2447,0.24467 -5.3944,4.75066 -12.5313,10.01329 -48.4907,35.75615 -101.7747,55.791194 -162.7519,61.195739 l -12.56164,1.113374 7.82994,-5.871424 c 9.6753,-7.254859 20.4301,-17.427919 24.7555,-23.415999 l 3.2627,-4.51704 -3.7851,1.17959 c -2.0819,0.64878 -7.5369,5.30461 -12.1225,10.34626 -4.5854,5.04169 -13.3048,12.46809 -19.37637,16.503136 l -11.03958,7.336461 -8.89585,-5.282487 c -4.89267,-2.905368 -13.93748,-10.3288 -20.09924,-16.49652 -6.16174,-6.16771 -12.91125,-11.75596 -14.99906,-12.41835 l -3.79574,-1.20432 5.72527,6.6866 c 5.80684,6.78165 19.42894,18.97195 26.03689,23.300173 1.99174,1.304563 3.39287,2.600256 3.11367,2.87932 -0.2792,0.279075 -7.57597,-0.202857 -16.21523,-1.07094 -37.48579,-3.766689 -76.07082,-14.635193 -108.83175,-30.655373 -17.84483,-8.72618 -46.06859,-26.57065 -55.91859,-35.35454 l -5.52011,-4.92264 6.30869,3.01985 c 19.62337,9.39331 42.68272,15.54504 65.79096,17.55158 16.94733,1.47158 39.5171,0.4333 38.16377,-1.75565 -0.45986,-0.74387 -6.64953,-1.35668 -13.75473,-1.36179 -7.10524,-0.005 -19.661,-1.03292 -27.90171,-2.28403 -84.94549,-12.89645 -145.3157,-70.06428 -164.26309,-155.54958 -5.17963,-23.3691 -5.12147,-58.79154 0.13167,-80.22946 7.79505,-31.8109 20.62253,-59.26205 37.61014,-80.48677 l 10.0876,-12.60362 -7.89314,-24.00937 c -6.46534,-19.66629 -14.46439,-52.66071 -14.46439,-59.66262 0,-2.56564 19.03545,-10.46715 34.15535,-14.17769 7.67161,-1.88268 14.65811,-4.1172 15.52556,-4.9656 2.72163,-2.66193 -13.23912,0.32226 -28.08452,5.25091 -7.6395,2.53632 -14.24347,4.61146 -14.67548,4.61146 -0.43204,0 3.48298,-6.20801 8.69996,-13.79557 29.04479,-42.24249 71.65367,-77.59542 122.01659,-101.23815 14.33939,-6.73158 40.94156,-17.17746 38.9696,-15.3022 -0.41383,0.39355 -7.29326,5.07723 -15.28761,10.40817 -21.54511,14.3671 -45.84946,37.65909 -60.33215,57.81905 l -4.97582,6.92637 4.4352,-0.0104 c 3.71566,-0.008 5.955,-2.07044 13.80268,-12.71169 16.1382,-21.88289 39.21146,-41.19872 65.48861,-54.82398 29.38614,-15.23736 54.69405,-21.10295 91.53541,-21.21517 35.87444,-0.10928 63.86004,7.04327 92.67944,23.68695 25.9852,15.00683 45.7764,32.23587 61.8468,53.83985 6.3101,8.48306 9.2826,11.23375 12.1392,11.23375 h 3.7829 l -3.7612,-5.53319 c -14.1087,-20.75608 -39.3832,-45.06331 -63.265,-60.84378 -7.7425,-5.11605 -13.6586,-9.30191 -13.147,-9.30191 3.1802,0 32.6307,12.46457 48.2034,20.40131 46.845,23.87489 86.7696,58.12869 112.9364,96.89505 4.7279,7.00455 8.4476,12.88415 8.266,13.06572 -0.1816,0.18157 -6.3472,-1.6911 -13.7012,-4.16148 -14.8638,-4.99316 -28.33,-7.5137 -28.33,-5.30269 0,0.78728 6.5649,3.0275 14.5887,4.97826 8.0241,1.95077 19.4284,5.77172 25.3439,8.49102 l 10.7548,4.94419 -1.0903,7.99375 c -1.8242,13.37408 -9.6077,43.32426 -15.7203,60.48922 l -5.7805,16.23283 4.1183,5.05179 c 22.6364,27.76845 34.9769,52.63194 43.5907,87.82529 4.8489,19.81229 5.3144,58.42997 0.945,78.46642 -5.1774,23.74283 -15.7822,50.97085 -27.1609,69.73757 -2.366,3.90219 -3.5293,6.3854 -2.5853,5.51824 3.9507,-3.62834 18.1821,-29.57387 24.777,-45.17034 19.8255,-46.88813 27.8004,-96.04016 24.2638,-149.54446 -5.8024,-87.77625 -44.9847,-162.93716 -115.7596,-222.0531 -58.8687,-49.17143 -133.9935,-74.09482 -212.91801,-70.63762 -47.73953,2.09118 -84.98265,11.10622 -124.59658,30.15973 -69.79063,33.5679 -130.60344,99.02454 -158.21585,170.29764 -21.32131,55.03455 -26.56664,121.98823 -14.32804,182.89002 16.12344,80.23387 69.7391,156.07404 143.5965,203.11959 36.87494,23.48853 88.10701,40.632084 134.71823,45.080188 20.41814,1.948493 60.20595,0.807123 81.12395,-2.327166 z m 256.4907,-265.580584 c -6.4031,-47.40186 -16.7348,-72.03565 -50.5607,-120.55153 -0.9809,-1.40691 0.7025,-9.21824 5.075,-23.54735 3.5986,-11.79312 8.1336,-29.02139 10.0783,-38.28504 l 3.5353,-16.843 9.5472,19.63206 c 15.8028,32.49484 22.3742,55.67207 27.0058,95.24472 2.9227,24.97349 2.2471,65.17264 -1.3914,82.7735 l -2.1183,10.24815 z m 0.6856,-63.88283 c -1.9693,-27.11661 -4.4935,-42.7204 -10.5749,-65.36896 -4.3568,-16.22621 -16.091,-47.33168 -17.855,-47.33168 -0.6007,0 -1.9368,3.72481 -2.9697,8.27735 -1.0326,4.55254 -4.4832,16.6749 -7.6686,26.93856 -3.8422,12.38061 -5.292,19.32813 -4.3079,20.64281 0.816,1.08991 5.1987,6.88211 9.7395,12.87158 9.1676,12.09239 22.9805,39.04019 29.6433,57.83271 2.3903,6.74121 4.6699,11.93298 5.0656,11.53727 0.3959,-0.39571 -0.086,-11.82555 -1.0723,-25.39964 z m -613.93828,68.28021 c -2.8009,-6.80839 -4.76135,-38.26922 -3.86001,-61.94466 1.95476,-51.34523 10.33603,-85.84481 30.66467,-126.22398 l 7.8907,-15.67345 1.08718,6.30654 c 1.74329,10.11266 11.36442,46.30276 15.55686,58.51766 l 3.85048,11.21849 -10.02983,14.00771 c -23.50516,32.82738 -40.08211,75.32431 -43.59436,111.75928 -0.34173,3.54502 -0.73395,4.05415 -1.56569,2.03241 z m 16.61223,-80.60723 c 5.92599,-12.82167 14.02985,-26.08779 23.53712,-38.53056 l 6.3551,-8.31734 -5.7222,-19.27383 c -3.14722,-10.6006 -6.56684,-23.01493 -7.59918,-27.58736 -1.03231,-4.57245 -2.42242,-7.76514 -3.08903,-7.09487 -0.66667,0.67027 -4.11704,8.54914 -7.66752,17.50864 -12.65143,31.92546 -20.6238,72.49679 -20.43808,104.00945 l 0.09,15.29146 4.61565,-12.26658 c 2.53863,-6.74662 7.00173,-17.42917 9.91804,-23.73901 z m 288.10292,331.96517 c 0,-1.54735 -2.3065,-4.16666 -5.12574,-5.8207 -2.81916,-1.65405 -7.81462,-5.7092 -11.10113,-9.01145 -8.45692,-8.49757 -13.17422,-8.03438 -4.99054,0.49004 5.08994,5.3021 19.2764,16.963016 20.82314,17.116369 0.21694,0.02151 0.39427,-1.226933 0.39427,-2.774259 z m 22.98353,-10.32004 c 4.7078,-4.18834 8.5599,-8.31567 8.5599,-9.1719 0,-2.92479 -7.0723,0.59611 -11.2727,5.61199 -2.29643,2.74242 -6.73243,6.36268 -9.85728,8.04502 -3.33823,1.7971 -5.68187,4.24831 -5.68187,5.94267 v 2.88387 l 4.846,-2.84824 c 2.66512,-1.56655 8.69787,-6.27507 13.40595,-10.46341 z m -58.6843,6.43266 c -4.85012,-8.03765 -22.95528,-27.30558 -28.17256,-29.98191 l -6.31072,-3.23722 -30.75484,-0.26333 c -16.91516,-0.14489 -34.30347,-0.79357 -38.64069,-1.44164 l -7.88586,-1.17832 8.47984,5.09226 c 17.96307,10.78709 53.70351,23.5503 83.78468,29.92026 16.55153,3.50494 21.11118,3.75978 19.50015,1.0899 z m 98.3135,-1.30258 c 24.0481,-4.62109 51.7411,-14.04156 73.8128,-25.10929 16.5067,-8.27725 18.0187,-9.34635 11.8285,-8.36356 -3.9033,0.61976 -22.0015,1.20617 -40.2178,1.30311 l -33.1205,0.17625 -6.4619,3.35287 c -3.5542,1.84408 -7.5909,5.0748 -8.9703,7.17938 -1.3794,2.10456 -6.5004,8.53082 -11.38,14.28054 -10.3606,12.20853 -10.7229,12.02926 14.5092,7.1807 z m -63.22696,-10.24271 c -0.55648,-1.44954 -3.195,-2.25029 -7.41521,-2.25029 h -6.5511 l 2.16447,2.62047 c 1.19043,1.44125 4.29366,3.92536 6.89596,5.52021 l 4.73167,2.89975 0.51887,-3.26992 c 0.28562,-1.79846 0.13084,-4.28255 -0.34466,-5.52022 z m 14.8745,2.77154 6.77966,-6.01466 -7.75975,0.89058 -7.75996,0.89057 -0.49422,5.12407 c -0.27187,2.81824 0.16935,5.12409 0.98009,5.12409 0.81084,0 4.52518,-2.70659 8.25418,-6.01465 z m 12.90696,-16.98537 c 12.6389,-2.58143 28.0829,-7.63997 35.8345,-11.73716 l 5.6052,-2.96279 -67.02964,-0.0126 -67.02982,-0.0126 10.979,4.74887 c 6.03843,2.61188 16.34371,6.13903 22.90068,7.83809 24.53698,6.3581 36.03467,6.77685 58.74008,2.1393 z m 65.315,-28.4324 c 7.2536,-4.87475 13.1884,-9.13168 13.1884,-9.45983 0,-0.32817 -6.0329,-0.59665 -13.406,-0.59665 h -13.406 v 4.83357 c 0,2.65847 -0.7346,6.2059 -1.6326,7.88319 -2.1969,4.10335 -11.6253,4.02204 -38.9681,-0.33603 -17.4306,-2.77821 -22.59163,-3.07419 -28.76517,-1.64964 -5.29886,1.22271 -9.28122,1.25087 -13.46786,0.0953 -4.66006,-1.28623 -9.72941,-0.94378 -23.45934,1.58471 -24.97015,4.59844 -41.32544,5.84533 -44.30022,3.37732 -1.47163,-1.22086 -2.39232,-4.64099 -2.39232,-8.88653 v -6.90182 h -12.71045 c -8.8313,0 -12.38368,0.52854 -11.63975,1.73182 0.58889,0.9525 6.39964,5.20942 12.91279,9.45983 l 11.84211,7.728 h 76.50806 76.50815 z m -197.40781,-1.66372 c -6.10116,-4.657 -10.01284,-6.21444 -19.89182,-7.91992 -59.00635,-10.18669 -105.63437,-44.00465 -132.15725,-95.84992 -13.13733,-25.67995 -19.03027,-50.56134 -19.03027,-80.35024 0,-45.34102 13.72605,-82.4773 43.82332,-118.56526 8.72785,-10.46511 8.53162,-11.57521 -2.04623,-11.57521 h -5.28008 l -9.98658,12.47747 c -23.71384,29.6286 -36.73316,66.86037 -38.64014,110.50029 -1.37924,31.56331 4.25198,57.76999 19.1844,89.28063 9.81067,20.70263 20.67887,38.11455 29.76873,47.69239 11.26415,11.86886 37.00808,29.96305 55.28715,38.8587 24.77294,12.05597 56.83023,20.62988 78.84504,21.08759 l 7.71837,0.16048 z m 73.05404,1.48244 c 11.0235,-2.37302 23.05915,-4.30531 26.7458,-4.29401 3.68655,0.0109 6.70303,-0.49821 6.70303,-1.13224 0,-2.6753 -11.92534,-3.03444 -25.56988,-0.77011 -22.38367,3.71464 -32.10254,4.63353 -35.98356,3.40217 l -3.53924,-1.12293 0.75441,-43.10582 0.75426,-43.1058 -2.86964,1.53527 c -1.57825,0.84439 -3.59562,2.89134 -4.48291,4.54877 -1.78724,3.33832 -2.31636,85.5543 -0.56189,87.30816 2.2763,2.27557 18.96979,0.84379 38.04962,-3.26346 z m 105.61627,2.34376 c 0.9197,-1.14677 1.8852,-19.05272 2.3086,-42.82434 l 0.7277,-40.85349 -4.435,-4.869 -4.435,-4.869 -0.046,42.90793 -0.046,42.9079 -3.3349,1.7841 c -3.4737,1.85849 -6.5805,1.60954 -33.0279,-2.64661 -16.7854,-2.70128 -25.34132,-2.45988 -26.39496,0.74477 -0.48734,1.48195 0.2097,1.84684 2.27542,1.1914 1.63807,-0.51968 15.02924,1.12771 29.75864,3.66085 30.7127,5.28194 34.4754,5.57615 36.6498,2.86549 z m 60.4314,-0.56388 c 51.7858,-8.82905 102.285,-39.36407 125.8032,-76.06878 21.875,-34.13954 32.8218,-66.77584 34.4509,-102.70994 2.2444,-49.49672 -14.0973,-99.53961 -42.5977,-130.44853 l -6.1955,-6.71898 h -7.753 -7.753 l 8.5029,10.64231 c 31.7126,39.69127 43.7208,72.2395 43.7715,118.64201 0.033,30.46319 -5.3699,53.24407 -19.0715,80.40855 -26.3118,52.16558 -78.7897,89.39475 -134.707,95.565 -8.9126,0.98346 -13.9499,3.52196 -23.6661,11.92695 -2.4713,2.13779 13.3443,1.46729 29.2153,-1.23859 z m -169.60244,-9.27753 c 10.37635,-1.29379 22.59232,-2.35802 27.14638,-2.36494 l 8.27993,-0.0127 v -39.25869 -39.2587 l -8.07254,-1.93595 c -5.32922,-1.27803 -11.359,-1.51242 -17.74318,-0.68977 -5.31872,0.6854 -15.06251,1.30844 -21.65256,1.38451 l -11.98194,0.13844 -1.05738,40.00934 c -1.06189,40.17695 -0.65081,44.34073 4.37683,44.34073 1.01109,0 10.32803,-1.05855 20.70446,-2.35237 z m -12.20414,-7.4228 c 2.20911,-2.20841 2.63906,-25.84022 0.49401,-27.16541 -0.76901,-0.47521 -2.27542,0.19241 -3.34733,1.48358 -2.71477,3.26987 -4.71715,2.92787 -4.71715,-0.80569 v -3.15326 h 12.43341 12.43339 l 0.825,3.15326 c 0.45363,1.73431 0.18149,3.15329 -0.60468,3.15329 -0.78626,0 -1.42962,-0.70948 -1.42962,-1.57664 0,-0.86714 -1.77427,-1.57665 -3.94285,-1.57665 h -3.94293 v 10.94342 c 0,6.01889 0.70969,11.38191 1.57726,11.91785 0.86734,0.53592 1.57716,1.99678 1.57716,3.24632 0,1.61749 -1.90815,2.27191 -6.62408,2.27191 -5.15221,0 -6.2036,-0.42045 -4.73159,-1.89198 z m 16.08703,-0.84125 c 0,-0.75132 0.65602,-2.04004 1.45782,-2.86383 0.80171,-0.8238 2.72246,-6.27903 4.26817,-12.12277 l 2.81029,-10.62494 -3.08513,-2.33217 -3.08531,-2.33217 13.40597,-0.0158 13.40597,-0.0158 -3.60597,2.77398 -3.60567,2.77397 1.79118,8.62159 c 0.98515,4.74188 2.78524,10.19298 4.00006,12.11355 2.86519,4.5294 2.78753,5.17956 -0.61837,5.17956 -2.024,0 -3.37416,-2.0446 -4.75284,-7.19753 l -1.92571,-7.19753 -4.18298,0.49682 c -3.38176,0.40161 -4.51889,1.70515 -5.93492,6.80337 -1.43271,5.15827 -2.53366,6.39738 -6.04703,6.80543 -2.3625,0.27438 -4.29553,-0.11589 -4.29553,-0.86717 z m 18.92618,-20.82329 c 0,-6.19562 -2.77229,-7.6096 -4.74576,-2.42058 -1.77055,4.65565 -0.92909,7.05744 2.47309,7.05744 1.46359,0 2.27267,-1.65071 2.27267,-4.63686 z m -43.37225,-28.18351 V -239.028 l 5.12572,-0.5982 c 5.34451,-0.62372 6.26325,0.15418 3.47478,2.94181 -0.94531,0.94493 -1.45105,6.6406 -1.18288,13.32259 l 0.46823,11.67202 3.39634,0.48386 c 2.11716,0.30162 4.39974,-0.88603 6.06047,-3.15326 l 2.66408,-3.63715 -1.13055,3.94159 c -1.5291,5.33099 -1.24167,5.16976 -10.59783,5.94538 l -8.27836,0.68627 z m 20.50322,-0.25032 v -15.8051 h 5.44119 c 4.23216,0 5.02074,0.42045 3.54864,1.89197 -2.47316,2.47246 -2.49436,22.10212 -0.0248,24.56929 2.30805,2.3072 1.74158,2.86108 -4.23216,4.13771 l -4.73135,1.0112 v -15.80507 z m 13.54902,7.45033 c 1.84962,-9.55782 1.72574,-20.10215 -0.23609,-20.10215 -0.91876,0 -1.23158,-0.70948 -0.69563,-1.57663 1.37238,-2.21967 15.53703,-1.96907 17.82208,0.31532 2.32916,2.32831 2.46651,7.94021 0.24858,10.1573 -1.14056,1.1402 -0.89904,2.26148 0.78864,3.66167 2.89185,2.39914 3.21021,9.68392 0.54006,12.35323 -1.04097,1.04058 -5.91375,1.89197 -10.82842,1.89197 h -8.93587 z m 13.13385,2.59042 c 5.4882,-2.10527 1.92808,-8.50282 -4.7314,-8.50282 -1.29193,0 -2.23681,1.55414 -2.23681,3.67882 0,5.48056 1.87426,6.7781 6.96821,4.824 z m -1.50861,-15.35852 c 3.35876,-2.45513 2.03657,-5.7574 -2.30523,-5.7574 -3.62952,0 -5.06115,2.03653 -3.77942,5.37595 1.17511,3.06097 2.32061,3.1328 6.08465,0.38145 z m 74.60164,22.62208 0.414,-41.78091 -26.0918,-0.33664 c -14.3505,-0.18515 -27.84419,0.3294 -29.98591,1.14346 l -3.89434,1.48009 v 38.66665 38.66666 l 7.49149,0.0873 c 4.12057,0.0481 14.23416,1.05288 22.47486,2.23289 8.2408,1.18 18.1768,2.02751 22.0802,1.88337 l 7.0974,-0.262 z m -53.22528,30.35028 c 0.0174,-1.5175 0.73602,-3.82334 1.60609,-5.12407 1.37967,-2.06264 1.78999,-2.01225 3.20859,0.39415 2.00823,3.4062 7.5484,3.61717 8.808,0.33544 1.1731,-3.05642 -3.2316,-8.0321 -8.21859,-9.28331 -4.85751,-1.21871 -6.86299,-8.03062 -3.38733,-11.50504 1.3786,-1.3782 5.60532,-2.5803 9.66732,-2.74946 5.9662,-0.24846 7.2179,0.18318 7.2179,2.48926 0,3.98647 -2.7741,5.15781 -5.5779,2.35513 -3.1606,-3.15967 -7.33642,-1.45429 -6.72847,2.74798 0.32276,2.23119 2.26827,3.82828 5.99757,4.92342 8.0168,2.354 9.4633,3.6631 9.4633,8.56448 0,6.57249 -4.4025,9.61114 -13.9245,9.61114 -6.72552,0 -8.15186,-0.48398 -8.13198,-2.75912 z m 36.13038,-7.20506 c -3.3366,-2.49672 -4.9709,-8.95547 -2.2663,-8.95547 1.1273,0 2.464,-1.08033 2.9709,-2.40072 0.8001,-2.08392 1.2911,-2.03191 3.7216,0.39415 3.3384,3.33192 4.1198,9.88975 1.179,9.88975 -1.1372,0 -2.304,0.65991 -2.5931,1.46645 -0.294,0.81985 -1.6222,0.64606 -3.0121,-0.39416 z m -36.23297,-29.59861 c -1.04565,-1.95277 -1.27167,-5.01037 -0.554,-7.48903 0.66696,-2.30391 1.03593,-6.69777 0.81999,-9.76411 -0.51668,-7.33315 4.07167,-11.85782 10.40318,-10.25912 2.4159,0.61001 6.0375,1.12426 8.0485,1.14279 2.573,0.0236 3.3904,0.72496 2.76,2.36747 -0.4927,1.2836 -0.896,3.74678 -0.896,5.47373 0,2.14335 -0.8758,2.96996 -2.7601,2.60438 -1.5179,-0.29455 -2.7682,-1.73831 -2.7783,-3.20834 -0.017,-1.47005 -0.8671,-3.52136 -1.9045,-4.55847 -2.6337,-2.63264 -6.75163,0.96554 -6.75163,5.89924 0,2.94736 0.84288,3.74856 3.94283,3.74856 2.1688,0 3.9429,0.70948 3.9429,1.57663 0,0.86716 -1.7964,1.57664 -3.9921,1.57664 -4.68824,0 -6.67444,3.74523 -3.81364,7.19103 3.20394,3.85946 8.51274,2.19267 9.09374,-2.85528 0.2855,-2.48162 1.4657,-4.33575 2.7599,-4.33575 1.6372,0 2.2609,2.01094 2.2609,7.28791 0,6.09503 -0.364,6.98575 -2.2253,5.4417 -1.5213,-1.26213 -2.5486,-1.32319 -3.2475,-0.19306 -0.5622,0.90927 -3.794,1.6532 -7.1821,1.6532 -4.63724,0 -6.59687,-0.8158 -7.92677,-3.30012 z m 26.57487,-0.16848 c 2.4113,-2.41028 2.5346,-22.75154 0.1467,-24.2266 -2.8656,-1.77054 1.8322,-3.7866 8.8863,-3.81344 3.4936,-0.0127 7.9294,1.08033 9.8573,2.43022 3.63,2.54175 4.6848,7.66733 1.9282,9.37044 -2.3945,1.47934 -1.8999,5.79542 1.407,12.27974 l 2.9845,5.8516 -2.5901,-0.0241 c -3.7992,-0.0356 -5.7808,-1.73204 -8.7192,-7.46489 -3.538,-6.90284 -5.6996,-6.45437 -5.6996,1.18245 v 6.30656 h -5.0469 c -3.9255,0 -4.6263,-0.42043 -3.1545,-1.89196 z m 13.5924,-14.83143 c 4.1999,-1.61106 3.0888,-6.92618 -1.4481,-6.92618 -2.7719,0 -3.9428,0.85838 -3.9428,2.8905 0,4.46792 1.4447,5.54949 5.3909,4.03568 z m -125.25601,53.88404 c 0,-1.24042 -1.59689,-2.48203 -3.54862,-2.75912 -2.3292,-0.33069 -3.54863,-1.58738 -3.54863,-3.65709 0,-2.0697 1.21943,-3.32641 3.54863,-3.6571 2.28053,-0.32377 3.54862,-1.59146 3.54862,-3.54743 v -3.04362 l -26.41762,0.0259 -26.41762,0.0258 10.25163,9.36532 10.2516,9.36531 16.16601,0.0685 c 13.00098,0.0552 16.166,-0.37298 16.166,-2.18672 z m 195.60311,-7.13015 10.2177,-9.38543 -26.4176,-0.0744 -26.4176,-0.0744 v 2.96938 c 0,1.64345 1.4087,3.33761 3.1543,3.794 1.8872,0.49337 3.1543,2.15056 3.1543,4.12548 0,2.24978 -1.0042,3.30087 -3.1543,3.30087 -1.7523,0 -3.1543,1.0511 -3.1543,2.36496 0,1.94869 2.8515,2.36495 16.2,2.36495 h 16.1997 z m -256.53999,-5.19845 c -42.10588,-43.06119 -69.26113,-92.60925 -78.8483,-143.86824 -2.55824,-13.67814 -2.94884,-23.85838 -2.94884,-76.86141 0,-33.60227 -0.47197,-61.09489 -1.04882,-61.09473 -1.64992,4.8e-4 -13.70487,14.1049 -20.21337,23.64988 -8.51313,12.48482 -18.36189,32.72037 -23.63247,48.55588 -22.88637,68.76285 5.53708,151.49744 66.19318,192.6743 13.7035,9.30271 39.89422,21.58143 53.61714,25.13673 19.13889,4.95846 19.41694,4.62744 6.88148,-8.19241 z m -96.0969,-98.54989 -4.83674,-5.72842 -5.60105,3.46045 c -3.08056,1.90325 -6.0156,3.46044 -6.5223,3.46044 -0.5067,0 0.0163,-3.11432 1.16225,-6.92072 l 2.08354,-6.92071 -6.49619,-3.65682 -6.49619,-3.65684 5.5201,-1.4143 c 3.03604,-0.77788 6.39726,-1.66777 7.46934,-1.97756 1.37108,-0.39618 1.65835,-2.68484 0.96852,-7.71612 -0.53941,-3.93408 -0.40368,-7.15288 0.30164,-7.15288 0.70531,0 3.23926,2.30584 5.63101,5.12409 l 4.34865,5.12407 6.62579,-3.71745 6.62578,-3.71743 -0.9899,3.71743 c -0.54445,2.04461 -1.41954,5.26193 -1.94464,7.14962 -0.75605,2.71807 0.22173,4.19419 4.69968,7.09487 3.1099,2.01448 5.66315,4.10413 5.67388,4.64367 0.0111,0.53954 -2.78237,1.42885 -6.20693,1.97627 l -6.22644,0.99533 -0.47652,7.78071 -0.47654,7.78072 z m 4.04816,-5.67431 c 0,-4.60726 0.66169,-5.48527 5.12581,-6.80155 l 5.12579,-1.51142 -5.0198,-2.64396 -5.01982,-2.64398 1.47119,-5.12797 c 0.80914,-2.82036 1.47117,-5.32823 1.47117,-5.57302 0,-0.24476 -2.26669,0.7267 -5.03711,2.15887 l -5.0371,2.6039 -3.62951,-4.53422 -3.62949,-4.53422 -0.008,6.70071 -0.008,6.70071 h -3.84936 c -5.50027,0 -6.49663,2.81848 -1.75918,4.97629 4.42166,2.01395 4.83727,3.73724 2.42864,10.07024 l -1.60318,4.21531 5.54503,-3.27055 5.54505,-3.27056 2.54822,3.88778 c 3.50636,5.34954 5.3398,4.86802 5.3398,-1.40236 z m 376.29743,112.48554 c 24.1109,-6.12521 56.0787,-24.32752 74.426,-42.37769 36.3679,-35.77887 54.4583,-82.53804 51.9164,-134.18976 -0.5096,-10.355 -2.2893,-23.47906 -4.1495,-30.60008 -6.952,-26.61196 -22.2278,-55.54903 -38.2843,-72.52241 l -10.5799,-11.18378 -0.067,53.93801 c -0.037,29.66591 -0.8522,61.2381 -1.8135,70.1604 -5.8673,54.47023 -32.8009,108.60878 -76.8623,154.49899 -16.8345,17.53326 -16.6779,17.88847 5.4133,12.27632 z m 84.2365,-108.6566 v -7.72144 l -6.3003,-1.06409 c -5.3854,-0.90956 -10.5924,-3.9314 -6.8043,-3.9489 0.7018,-0.003 3.5264,-1.37769 6.2771,-3.05435 l 5.0013,-3.04849 -2.1636,-7.18618 -2.1632,-7.1862 6.4184,3.27335 6.4183,3.27332 5.2374,-5.07452 5.2373,-5.07454 0.4897,7.66361 0.4895,7.6636 7.0638,1.38903 7.0641,1.38903 -6.7164,3.96509 c -4.607,2.7198 -6.4776,4.77273 -5.956,6.53657 2.0748,7.01608 2.7209,11.24295 1.719,11.24295 -0.6107,0 -3.2764,-1.54174 -5.9236,-3.42608 l -4.813,-3.4261 -5.2876,5.76791 -5.2879,5.76789 z m 6.3662,-2.08623 2.9284,-3.54743 4.9557,2.76599 4.9554,2.766 -1.0142,-6.00108 -1.0143,-6.00108 3.9751,-2.12663 c 4.6648,-2.4957 3.9292,-4.80463 -1.5307,-4.80463 -3.3483,0 -3.8498,-0.71879 -3.8498,-5.51822 0,-6.31099 -1.9025,-7.04962 -5.3787,-2.08826 l -2.4032,3.43001 -4.3891,-2.19694 c -2.4143,-1.2083 -4.9271,-2.45806 -5.5847,-2.77722 -0.6577,-0.31917 -0.4802,1.3006 0.3943,3.59947 2.4172,6.35568 1.9734,8.0146 -2.7478,10.27364 l -4.3369,2.0754 5.1257,1.55904 c 4.4547,1.35492 5.1258,2.25176 5.1258,6.84923 0,6.22483 0.8372,6.52943 4.789,1.74271 z m -313.91451,84.74431 v -8.67151 h -36.27493 c -19.95122,0 -36.27495,0.38514 -36.27495,0.85586 0,0.47072 3.29089,4.37289 7.31309,8.67151 l 7.31308,7.81564 h 28.96186 28.96185 z m 218.22251,0.85586 c 4.0221,-4.29862 7.313,-8.20079 7.313,-8.67151 0,-0.47072 -16.3237,-0.85586 -36.2749,-0.85586 h -36.275 v 8.67151 8.6715 h 28.9619 28.9618 z m -218.22251,-18.19889 c 0,-2.9108 -0.83784,-3.94159 -3.20382,-3.94159 -4.45927,0 -5.90624,-4.66566 -2.27108,-7.32286 2.48584,-1.81706 -3.626,-2.13696 -40.82858,-2.13696 -35.81226,0 -43.52315,0.37744 -42.49077,2.07996 0.69368,1.14398 3.39043,5.03102 5.99277,8.63785 l 4.7315,6.55789 39.035,0.0337 39.03498,0.0336 z m 235.78711,-2.6836 c 2.6023,-3.60683 5.2992,-7.49387 5.9928,-8.63785 1.0328,-1.70336 -6.5347,-2.05744 -41.795,-1.95549 -23.6808,0.0684 -42.1692,0.48233 -41.0849,0.9197 3.1724,1.27964 2.3155,7.04427 -1.1828,7.95882 -2.0413,0.53363 -3.1543,2.15057 -3.1543,4.58232 v 3.7577 l 38.2463,-0.0336 38.2462,-0.0337 z m -235.78711,-16.9034 c 0,-0.80062 1.72784,-3.5084 3.83965,-6.01729 l 3.83963,-4.56159 32.04102,0.56941 c 42.01572,0.74668 38.3531,0.7436 75.13911,0.0634 l 32.0577,-0.59278 3.8228,4.5416 c 2.1025,2.49788 3.823,5.19666 3.823,5.99728 0,0.85665 18.9946,1.45567 46.158,1.45567 h 46.1581 l 5.1,-8.52373 c 2.805,-4.68805 5.0999,-8.94498 5.0999,-9.45982 0,-0.51486 -81.3117,-0.93611 -180.69283,-0.93611 H 803.26515 l 5.20233,9.45983 5.20233,9.45983 h 46.95109 c 27.64817,0 46.95109,-0.59846 46.95109,-1.45567 z m 264.96491,-30.07709 4.7768,-9.45985 h -11.6438 -11.6437 l -0.8768,6.53379 c -0.4821,3.59359 -1.8176,7.18129 -2.9677,7.97269 -2.5727,1.77043 -24.2578,0.40865 -43.7958,-2.75032 -9.1715,-1.4829 -18.3019,-1.9727 -24.6511,-1.32243 -6.0757,0.62226 -10.8783,0.39703 -12.0819,-0.56661 -1.3791,-1.104 -8.1044,-0.45383 -21.7126,2.09904 -21.6433,4.06025 -42.3977,4.93217 -45.4225,1.90827 -1.0411,-1.04059 -1.8927,-4.58802 -1.8927,-7.88319 v -5.99124 h -16.35876 -16.35862 l -0.97606,6.1018 c -1.45918,9.12145 -3.75193,10.27259 -17.98546,9.02982 -6.70819,-0.58572 -18.87419,-2.12083 -27.03599,-3.41139 -9.65493,-1.52668 -18.87526,-1.98087 -26.39106,-1.30004 -6.9424,0.62889 -12.34888,0.42109 -13.54965,-0.5208 -1.34972,-1.0587 -6.60369,-0.65545 -16.19255,1.24282 -7.80699,1.54552 -20.98775,3.31093 -29.29056,3.92314 -18.81224,1.3871 -21.9675,0.12109 -21.9675,-8.81424 v -6.25111 h -11.1465 -11.14648 l 1.12528,3.54745 c 0.61891,1.95109 2.80484,6.20801 4.85759,9.45983 l 3.7323,5.9124 h 182.90944 182.90928 z m -126.839,-0.0234 c 13.6641,-2.61442 26.146,-4.34033 27.7376,-3.83535 3.5298,1.11994 3.9001,-1.72432 0.399,-3.06727 -4.0896,-1.56886 -12.8156,-1.1034 -28.0815,1.49788 -7.9237,1.35021 -18.6575,2.23707 -23.8529,1.9708 l -9.4462,-0.48417 0.121,-42.87298 0.1211,-42.873 -2.8456,1.52236 c -5.5699,2.97995 -6.0721,6.99706 -6.0721,48.56727 v 41.0179 l 2.7602,1.60704 c 4.5065,2.62406 12.9288,1.96793 39.1582,-3.05056 z m -179.26152,-1.58672 c 9.90456,-1.78951 18.93083,-2.89977 20.05842,-2.46722 1.12758,0.43254 2.42365,0.18228 2.88016,-0.55613 2.31966,-3.75201 -10.29704,-4.19801 -28.44338,-1.00547 -10.8737,1.91302 -25.86038,3.08051 -33.56663,2.61489 -1.75736,-0.10627 -2.0376,-7.80677 -1.57718,-43.33641 0.36935,-28.5022 0.0232,-42.90851 -1.01726,-42.32942 -0.86745,0.48281 -2.81921,1.94414 -4.33724,3.24735 l -2.76004,2.36953 v 42.19346 c 0,32.22146 0.46594,42.40719 1.97147,43.09767 3.4217,1.56931 28.08612,-0.44861 46.79168,-3.82825 z m 96.02116,2.87152 c 1.37595,-1.37548 1.89264,-13.19507 1.89264,-43.29613 v -41.40417 l -3.54864,-3.3061 -3.54871,-3.30609 -0.4197,42.71987 c -0.35584,36.21232 -0.77925,42.85784 -2.78031,43.62544 -1.29845,0.49804 -12.498,-0.28954 -24.88822,-1.7502 -23.76734,-2.80189 -34.38301,-2.77221 -35.32463,0.0989 -0.35707,1.08879 3.42542,2.12064 10.12971,2.76336 5.88481,0.56415 16.73226,2.01785 24.10562,3.23044 17.09603,2.8116 31.92508,3.08104 34.38224,0.62474 z m 187.09816,-1.65547 c 0.4052,-1.95109 1.0215,-21.11902 1.3696,-42.59541 l 0.6329,-39.04795 -4.0996,-4.30959 -4.0995,-4.30958 -0.7886,43.35754 -0.7886,43.35755 -4.5833,0.52263 c -2.5206,0.28743 -14.8684,-1.0203 -27.4391,-2.9061 -17.2303,-2.58482 -23.7688,-3.01282 -26.5657,-1.73892 -4.8052,2.18863 -4.7939,4.68056 0.018,3.76121 2.0497,-0.39174 11.0989,0.73842 20.1088,2.51144 22.5526,4.43799 22.9213,4.48796 34.8837,4.7299 l 10.6157,0.21472 z m -282.90331,-8.16746 c 8.28848,-1.18529 16.98264,-1.78957 19.32037,-1.34286 l 4.25035,0.81224 v -38.61836 -38.6184 l -2.60551,-2.16385 c -2.67984,-2.22554 -4.67329,-2.28317 -40.37044,-1.16672 l -18.52982,0.57952 -0.002,41.38675 -0.002,41.38676 11.43449,-0.0499 c 6.28898,-0.0273 18.21599,-1.01979 26.50447,-2.20508 z m -27.29305,-6.67229 c 3.03892,-1.22583 2.75121,-27.33531 -0.30121,-27.33531 -1.24998,0 -2.71132,0.70948 -3.24742,1.57664 -1.64834,2.66616 -3.94293,1.7486 -3.94293,-1.57664 v -3.15329 h 12.43342 12.43342 l 0.82487,3.15329 c 0.85323,3.26163 -1.10483,4.35532 -2.82274,1.57664 -0.5361,-0.86716 -2.35231,-1.57664 -4.03602,-1.57664 h -3.06124 v 11.82478 c 0,6.8321 0.66592,11.82478 1.57717,11.82478 0.86744,0 1.57718,1.06424 1.57718,2.36497 0,1.75072 -1.74091,2.33263 -6.70299,2.24048 -3.68663,-0.0684 -5.81583,-0.48233 -4.73151,-0.9197 z m 40.12929,-6.15336 -1.9257,-7.19752 -4.31583,0.49681 c -3.52417,0.40569 -4.58379,1.58131 -5.77683,6.40921 -1.27603,5.16368 -2.04945,5.9124 -6.10752,5.9124 -3.47094,0 -4.26451,-0.4986 -3.13668,-1.97079 0.8304,-1.08395 2.77981,-6.79453 4.33206,-12.69018 l 2.82227,-10.71939 -2.90764,-2.12537 -2.90756,-2.12538 10.37024,-1.11018 c 5.70359,-0.61059 11.69203,-0.85571 13.30759,-0.54469 l 2.93738,0.56551 -3.53437,3.29167 -3.53443,3.29167 1.76964,8.52114 c 0.97328,4.68659 2.76365,10.09249 3.97859,12.01309 2.86518,4.52937 2.78757,5.17953 -0.6183,5.17953 -2.0241,0 -3.37424,-2.04459 -4.75291,-7.19753 z m -3.46004,-14.78234 c 0,-5.86735 -2.45598,-7.49679 -4.77384,-3.16729 -2.13223,3.98274 -0.97732,7.80415 2.35859,7.80415 1.62137,0 2.41525,-1.52407 2.41525,-4.63686 z m -11.3213,-15.85486 c -2.11494,-1.28747 -2.62247,-3.9627 -2.52556,-13.31309 0.0667,-6.43602 0.54806,-12.35369 1.06966,-13.15038 2.28798,-3.49454 7.85755,-5.06733 12.1573,-3.43311 2.37502,0.90267 5.26039,1.27976 6.41197,0.83802 2.4182,-0.92765 2.91132,6.40281 0.66878,9.94216 -1.90773,3.01092 -4.88369,0.77224 -4.88369,-3.6738 0,-4.63409 -3.85839,-6.24148 -7.1304,-2.97056 -3.35227,3.35114 -2.31846,7.5098 2.02071,8.12865 4.7044,0.67095 4.69381,5.10035 -0.0111,4.60168 -4.33587,-0.45955 -5.75404,5.16194 -2.07276,8.21613 3.447,2.85976 7.19348,0.87424 7.19348,-3.81232 0,-2.93997 0.83072,-3.99107 3.15433,-3.99107 2.61435,0 3.15436,1.0511 3.15436,6.13977 0,5.29297 -0.48944,6.15051 -3.54864,6.2177 -1.95176,0.0429 -5.67781,0.48149 -8.28016,0.97469 -2.60234,0.49321 -5.92259,0.17169 -7.37836,-0.71447 z m -20.70651,-1.18707 c -0.36878,-0.65036 -2.27676,-6.14887 -4.23991,-12.21894 -1.96318,-6.07005 -4.65222,-12.27806 -5.97569,-13.79559 l -2.4063,-2.75911 h 4.93191 4.93189 l 2.66544,9.06567 2.66546,9.06566 3.59051,-7.88318 c 1.97476,-4.33576 3.63406,-8.77005 3.6873,-9.85399 0.0995,-2.02518 5.10546,-2.74483 6.86414,-0.98675 0.5414,0.54122 -0.31048,2.13756 -1.89309,3.54744 -3.69108,3.28816 -11.8734,23.03233 -10.47943,25.28709 0.58332,0.94348 -0.003,1.71418 -1.30596,1.71418 -1.30117,0 -2.66749,-0.53211 -3.03627,-1.18248 z m 199.92872,45.25731 c 6.0349,-0.87187 15.7936,-1.67423 21.6863,-1.783 7.842,-0.14473 10.7135,-0.76794 10.7135,-2.32515 0,-1.17004 -1.4091,-2.12736 -3.1317,-2.12736 -2.4006,0 -3.5533,-1.67541 -4.9399,-7.17947 l -1.8085,-7.17949 -4.1287,0.47878 c -3.3017,0.38289 -4.418,1.64913 -5.5729,6.32275 -1.6497,6.67467 -3.3719,7.72903 -10.6878,6.54289 l -5.2169,-0.84578 0.4735,-13.65375 c 0.3021,-8.71477 -0.053,-12.87996 -0.9857,-11.51462 -1.019,1.49388 -1.7846,1.61278 -2.5379,0.39416 -0.5934,-0.95973 -2.4564,-1.74495 -4.1402,-1.74495 h -3.0612 v 10.72113 c 0,5.89663 0.7899,11.5107 1.7551,12.47573 2.8363,2.8351 0.07,5.18262 -6.1066,5.18262 -4.4664,0 -5.3219,-0.42044 -3.8499,-1.89196 2.2,-2.19917 2.6688,-28.06417 0.5086,-28.06417 -0.7613,0 -2.2612,1.05643 -3.333,2.34761 -1.0719,1.29117 -2.5783,1.95879 -3.3474,1.48357 -0.7811,-0.48249 -1.3984,6.83489 -1.3984,16.57207 v 17.43608 l 9.0686,-0.0314 c 4.9877,-0.0172 14.0065,-0.74459 20.0411,-1.61646 z m 95.7245,-12.54206 c 0.5646,-7.37079 1.0968,-25.86172 1.1829,-41.09099 l 0.1561,-27.68956 -19.3204,-0.3678 c -10.6262,-0.20228 -23.2931,-0.51274 -28.1486,-0.68992 -5.5934,-0.20408 -9.7832,0.47075 -11.4345,1.84171 l -2.6063,2.16385 v 38.50603 38.50604 l 5.1257,-0.8182 c 2.8195,-0.44999 12.933,0.1482 22.4749,1.32923 9.5419,1.18108 20.5428,2.04923 24.4463,1.92922 l 7.0971,-0.21818 z m -33.3584,-3.30163 c 0,-0.78556 -1.0647,-1.42829 -2.3658,-1.42829 -3.4139,0 -2.9136,-5.75858 0.8244,-9.49558 2.7031,-2.7021 3.3309,-2.82247 4.1117,-0.78832 0.5069,1.32038 1.7328,2.40071 2.7242,2.40071 3.3621,0 1.9524,7.32104 -1.7459,9.06567 -1.9516,0.92078 -3.5486,1.03139 -3.5486,0.24581 z m -15.1221,-28.72282 c 2.4834,-1.81531 2.6904,-3.55121 1.6932,-14.18974 -0.7671,-8.18173 -1.79,-12.12142 -3.1479,-12.12142 -1.1064,0 -2.4377,1.10919 -2.9579,2.46487 -1.2271,3.19651 -4.1229,1.39986 -4.1229,-2.55793 v -3.06022 h 12.4486 c 10.0925,0 12.637,0.49034 13.4432,2.59062 1.3548,3.52988 -0.074,4.58499 -2.9647,2.18758 -4.8495,-4.02342 -7.1554,-0.78236 -7.1554,10.05733 0,5.61251 0.7097,10.64307 1.5773,11.17899 0.8673,0.53594 1.577,1.99679 1.577,3.24635 0,1.61673 -1.9061,2.2719 -6.6099,2.2719 h -6.6102 z m 20.7132,0.60642 c -0.501,-0.81042 -0.1898,-1.91912 0.6919,-2.46379 2.0741,-1.28146 2.0971,-22.38573 0.025,-23.66548 -3.2765,-2.02429 -1.3776,-3.94159 3.9038,-3.94159 h 5.4811 l -1.5381,4.04423 c -2.1394,5.62483 -1.9264,20.16315 0.3282,22.41701 2.2413,2.24063 1.7772,2.74516 -3.7412,4.06719 -2.3324,0.55874 -4.6506,0.35284 -5.1516,-0.45757 z m -158.01538,11.19843 c 0.74245,-17.6244 0.85949,-35.9679 0.26017,-40.76334 l -1.08983,-8.71897 -8.68648,1.08494 c -4.81392,0.60129 -15.91618,0.20169 -24.90344,-0.89633 -13.18946,-1.61144 -17.13691,-1.6003 -21.14556,0.0596 l -4.92872,2.04081 v 39.25472 39.2547 l 3.54864,-0.83299 c 1.95174,-0.45816 9.22645,-0.19875 16.16599,0.57646 6.93954,0.7752 18.65013,1.31391 26.02341,1.19712 l 13.40589,-0.21233 z m -54.12956,24.98387 c -1.11153,-0.68671 -1.40095,-2.7737 -0.74634,-5.38107 l 1.06938,-4.25927 2.69491,2.43804 c 2.73351,2.47297 8.19604,3.25979 10.01404,1.44241 1.91423,-1.91359 -2.34502,-7.17277 -7.57967,-9.35922 -11.08522,-4.63014 -7.65014,-14.87138 4.98815,-14.87138 5.73189,0 6.85279,0.50055 6.85279,3.06023 0,4.33476 -2.99458,5.64408 -5.39692,2.35973 -2.3093,-3.157 -7.22044,-2.11471 -7.22044,1.53238 0,2.83286 2.2501,4.37621 9.46301,6.49067 4.81982,1.41295 5.58022,2.33011 5.99416,7.22983 0.27423,3.24638 -0.39048,6.29846 -1.57717,7.24123 -2.58802,2.05616 -16.13504,3.57208 -18.5559,2.07642 z m 31.48789,-8.3561 c -3.2376,-2.63629 -3.78255,-9.02128 -0.77003,-9.02128 1.29099,0 2.34704,-0.64274 2.34704,-1.42829 0,-0.78557 1.65608,-0.64706 3.68005,0.30783 2.56792,1.21139 3.68026,3.07267 3.68026,6.1582 0,2.43216 -0.53345,4.4221 -1.18543,4.4221 -0.6519,0 -2.13059,0.33476 -3.28575,0.74392 -1.15522,0.40916 -3.16506,-0.12298 -4.46614,-1.18248 z m 1.57701,-27.84788 c 0,-0.81598 0.70984,-1.92208 1.57718,-2.45801 2.17036,-1.3409 2.02117,-22.40091 -0.16822,-23.75359 -2.34511,-1.44883 1.37564,-3.78142 6.08277,-3.81344 3.6513,-0.0249 4.7663,2.19068 1.97138,3.91745 -2.28095,1.40927 -2.028,22.44828 0.2792,23.21707 1.02118,0.34024 1.33409,1.4636 0.69547,2.49636 -1.36842,2.21342 -10.43778,2.55589 -10.43778,0.39416 z m -30.81159,-3.8641 c 2.41237,-11.79943 2.48652,-21.16604 0.18574,-23.46603 l -2.41359,-2.41279 2.45422,-0.94145 c 3.73481,-1.43269 12.5481,-1.12501 17.07667,0.59617 4.40525,1.6743 5.14507,5.36161 2.31963,11.56077 -1.3987,3.06868 -1.08169,5.04956 1.67145,10.44433 l 3.39758,6.65745 -3.63585,-0.51618 c -2.16227,-0.30698 -5.23671,-3.00198 -7.58592,-6.64964 l -3.95008,-6.13345 -1.37595,6.38072 c -1.06048,4.91757 -2.22985,6.54388 -5.09971,7.09229 -3.10324,0.59303 -3.61051,0.15776 -3.04419,-2.61219 z m 14.19086,-15.69775 c 3.38959,-2.47765 2.02335,-5.75743 -2.39829,-5.75743 -2.21393,0 -3.06131,1.09105 -3.06131,3.94161 0,4.46007 1.26614,4.88117 5.4596,1.81582 z m 265.56577,49.42492 3.1956,-9.45982 h -15.6682 -15.6682 v 3.15327 c 0,1.7343 0.5322,3.06925 1.1828,2.96658 5.7358,-0.90537 7.563,6.1513 1.9713,7.61306 -1.7349,0.45353 -3.1541,1.80608 -3.1541,3.00567 0,1.67315 2.9044,2.18107 12.4724,2.18107 h 12.4725 z m -367.23281,6.41621 c 0,-0.80685 -1.59689,-1.69371 -3.54864,-1.9708 -4.72233,-0.67045 -4.71837,-6.29737 0.007,-8.36925 6.68224,-2.93058 2.50323,-4.74754 -11.96227,-5.20099 -16.25824,-0.50966 -16.36175,-0.41704 -11.92425,10.66956 l 2.537,6.33846 h 12.44613 c 6.84496,0 12.44572,-0.66014 12.44572,-1.46698 z m 186.10621,0 c 0,-0.80685 -1.59686,-1.69371 -3.54859,-1.9708 -2.32925,-0.33068 -3.54865,-1.58739 -3.54865,-3.65709 0,-1.75782 1.57023,-3.84202 3.54865,-4.70961 1.95173,-0.856 3.54859,-2.45234 3.54859,-3.54745 0,-1.47728 -4.27351,-1.99108 -16.56038,-1.99108 -13.32245,0 -16.56026,0.4416 -16.56026,2.25869 0,1.24231 1.41947,2.70908 3.15437,3.25954 1.78716,0.56703 3.15438,2.38549 3.15438,4.19544 0,1.86869 -1.30918,3.5369 -3.15438,4.01924 -7.72725,2.02004 -1.82256,3.6101 13.40589,3.6101 9.16349,0 16.56038,-0.65524 16.56038,-1.46698 z m 75.7042,-36.1793 c 0,-40.17524 0.4654,-38.96493 -14.8285,-38.57625 -5.2897,0.13449 -17.9564,0.48919 -28.1479,0.78832 l -18.5306,0.5439 v 21.28462 21.28461 l 17.4454,-0.2065 c 13.581,-0.16076 17.2742,0.24008 16.6717,1.80954 -0.4256,1.10884 -1.2797,7.14778 -1.898,13.41984 -0.9252,9.38723 -0.7361,11.27449 1.07,10.67261 1.2069,-0.40217 3.2176,-5.1584 4.4681,-10.56945 1.9562,-8.46456 1.9626,-10.03034 0.048,-11.21394 -3.306,-2.04242 -1.8199,-2.58747 9.9049,-3.63271 10.4292,-0.92975 13.4444,0.36336 7.9774,3.42163 l -2.6682,1.49272 1.9751,10.71513 c 1.0863,5.89329 2.3291,11.28746 2.7614,11.98702 2.9706,4.80476 3.7543,-2.13244 3.7543,-33.22109 z m -59.9324,-0.1 c 0,-0.81598 0.7095,-1.92208 1.5772,-2.45801 2.2131,-1.36748 1.9893,-21.81859 -0.264,-24.07088 -2.6784,-2.67759 1.27,-3.80053 11.3068,-3.21569 l 8.301,0.48372 2.7153,8.67151 2.7151,8.6715 3.3846,-7.61974 c 1.8614,-4.19087 3.3847,-8.24009 3.3847,-8.99828 0,-0.75819 4.9679,-1.25705 11.04,-1.10859 10.9959,0.26886 12.4774,1.1879 9.5012,5.89413 -1.2781,2.02121 -1.8219,1.90882 -3.8127,-0.78832 -1.7473,-2.36744 -2.7748,-2.6995 -4.153,-1.34228 -3.1503,3.10214 -0.9784,7.29991 4.7731,9.22535 l 5.5201,1.84798 0.4802,6.46762 c 0.5697,7.67572 -2.2053,9.89764 -11.706,9.37322 l -6.123,-0.338 0.5485,-3.9416 c 0.7317,-5.25777 1.2195,-5.55278 4.2205,-2.55266 3.0315,3.03037 4.2407,3.16351 6.6705,0.73448 2.5573,-2.5565 -0.1482,-7.02288 -6.1244,-10.1126 -4.2385,-2.19107 -4.7638,-3.18048 -4.2097,-7.92641 0.3901,-3.34012 0,-5.21123 -1.0246,-4.87188 -2.5712,0.85446 -11.756,23.58222 -10.8446,26.8352 0.6737,2.40515 0.3189,2.62707 -2.0985,1.31294 -1.8094,-0.9836 -4.3276,-6.36496 -6.6601,-14.23391 -4.022,-13.56735 -7.1928,-16.9444 -9.7058,-10.33702 -2.1692,5.70369 -1.9385,20.75183 0.3298,21.50767 1.0212,0.34024 1.334,1.4636 0.6956,2.49636 -1.3686,2.21342 -10.4378,2.55589 -10.4378,0.39416 z m 48.8923,15.6733 c 0,-5.09802 -3.665,-6.62935 -5.3515,-2.236 -1.7505,4.56044 -0.9917,6.96592 2.1972,6.96592 2.4533,0 3.1543,-1.0511 3.1543,-4.72992 z m -251.75605,-4.927 c 0.54216,-2.70984 0.98574,-6.61202 0.98574,-8.6715 v -3.74453 h -18.13748 c -9.97561,0 -18.13746,0.31982 -18.13746,0.71073 0,0.3909 0.76851,4.29307 1.70783,8.6715 l 1.70789,7.9608 h 15.44387 15.44388 z m 186.77635,-4.13868 -0.47307,-9.06566 h -15.77171 -15.77153 l -0.47305,9.06566 -0.47294,9.06568 h 16.71752 16.71778 z m 187.8117,2.06095 c 3.1765,-12.61064 3.9197,-12.07235 -15.9788,-11.57241 l -17.7433,0.4458 -0.473,9.06566 -0.4726,9.06568 h 16.4517 16.4516 z m -373.60231,-19.00985 c 0,-2.29683 -0.9066,-3.94159 -2.17265,-3.94159 -1.19495,0 -3.1237,-1.14556 -4.28606,-2.54566 -1.81186,-2.18243 -1.58943,-2.96984 1.55879,-5.51825 l 3.6722,-2.97257 h -19.1008 -19.10076 v 4.53284 c 0,2.49306 0.44358,6.74998 0.98572,9.45984 l 0.98573,4.92699 h 18.72891 18.72892 z m 186.10621,0 c 0,-2.81626 -0.85221,-3.94159 -2.98564,-3.94159 -4.65332,0 -5.66762,-5.02578 -1.66766,-8.26354 l 3.42559,-2.77294 -15.55218,0.10674 c -12.36371,0.0848 -14.82464,0.45745 -12.00336,1.81757 4.41514,2.12867 4.6616,7.53978 0.39426,8.65536 -1.73508,0.45354 -3.15438,1.3933 -3.15438,2.0884 0,0.6951 -0.43086,2.38607 -0.95736,3.75772 -0.83585,2.17752 1.16505,2.49391 15.77163,2.49391 l 16.7291,-3e-5 z m 191.6457,-1.97079 c 0.523,-3.25183 1.2784,-7.50875 1.6785,-9.45983 l 0.7279,-3.54745 h -19.7447 c -12.1118,0 -19.7446,0.60951 -19.7446,1.57666 0,0.86713 0.5324,1.4926 1.1828,1.38992 5.7359,-0.90535 7.5632,6.15129 1.9717,7.61305 -2.0413,0.53365 -3.1545,2.15058 -3.1545,4.58233 v 3.75771 h 18.066 18.0661 z M 814.51889,-353.3124 c 0,-1.14955 1.82372,-3.80282 4.05268,-5.89613 l 4.0527,-3.80602 30.25078,-0.30497 c 17.36318,-0.17504 32.02575,0.37315 34.41713,1.28676 3.10912,1.1878 6.09116,0.93844 11.75172,-0.98272 6.35006,-2.15518 9.26752,-2.29229 17.91408,-0.84199 5.68079,0.95282 18.11256,1.52497 27.62629,1.27143 l 17.29733,-0.461 3.8643,5.91238 3.86426,5.91239 h 14.11493 14.1148 l 6.30481,-6.49439 6.3046,-6.49437 12.0425,1.0677 c 6.6234,0.58723 13.107,1.1783 14.4083,1.31348 1.3012,0.13512 8.7076,-0.35566 16.4588,-1.09074 10.0713,-0.95511 15.5949,-0.79361 19.3561,0.56591 4.3574,1.57516 6.6299,1.44835 13.2125,-0.73723 6.8638,-2.27902 9.3418,-2.37704 18.1402,-0.71747 6.7243,1.26837 15.7234,1.54508 26.4589,0.81361 l 16.2685,-1.1085 4.1966,4.98534 c 2.3078,2.74192 4.1962,5.64038 4.1962,6.44101 0,0.81215 8.7152,1.45565 19.7146,1.45565 h 19.7146 l 0.021,-5.12407 c 0.017,-2.81823 0.4495,-6.72041 0.9727,-8.6715 l 0.951,-3.54744 H 985.03729 773.51243 v 8.67151 8.6715 h 20.50324 c 15.97543,0 20.50322,-0.46157 20.50322,-2.09013 z m 155.41943,-23.02612 c -0.4988,-0.80667 -5.8546,-1.4823 -11.9018,-1.50141 -6.0472,-0.0191 -13.31058,-0.43689 -16.14085,-0.9284 -4.97522,-0.86404 -12.36428,-1.36621 -49.3068,-3.35104 -9.54188,-0.51268 -18.20055,-0.98366 -19.24146,-1.04666 -1.04094,-0.0628 -3.52498,-3.88635 -5.52012,-8.49637 -4.33366,-10.01347 -8.48642,-11.53583 -7.03226,-2.578 1.80737,11.13378 -8.84128,17.06769 -16.3295,9.09956 -2.87321,-3.05738 -3.29626,-4.3899 -1.8521,-5.83358 1.92967,-1.92901 2.6691,-24.13151 0.95261,-28.6031 -0.50553,-1.31691 -1.83742,-2.04209 -2.95976,-1.61154 -1.2223,0.46887 -2.44697,-0.83557 -3.05386,-3.25284 -0.55727,-2.2196 -1.59861,-4.03563 -2.31406,-4.03563 -0.71544,0 -1.1048,-3.7248 -0.86523,-8.27735 0.37378,-7.10329 -0.15048,-8.89233 -3.69571,-12.61311 -2.27222,-2.38466 -3.34686,-4.33575 -2.38807,-4.33575 0.95881,0 2.87394,-0.43372 4.2559,-0.96387 1.83904,-0.70545 2.25121,-0.28278 1.53742,1.57665 -0.55319,1.44109 -0.17939,2.5405 0.8638,2.5405 1.01143,0 1.40034,-0.7095 0.86424,-1.57664 -0.53613,-0.86715 -0.11302,-1.57664 0.93993,-1.57664 1.24794,0 1.00575,-1.00406 -0.69549,-2.88325 -3.7494,-4.14164 -3.23563,-5.4496 1.84761,-4.7038 l 4.45783,0.65407 0.26238,-9.51699 c 0.28356,-10.28445 -0.75859,-15.59856 -2.81036,-14.33091 -2.05812,1.27156 -6.43038,-6.60848 -6.31355,-11.37873 0.22313,-9.1098 -1.09067,-17.56667 -3.10609,-19.99429 l -2.09376,-2.52196 5.72723,0.73301 c 6.38398,0.81708 6.93233,0.0919 3.11698,-4.12261 l -2.6102,-2.88326 h 2.6102 c 1.43564,0 2.61021,-0.32136 2.61021,-0.71414 0,-2.01151 -3.8382,-8.74568 -4.98468,-8.74568 -0.72821,0 -1.32402,-1.08649 -1.32402,-2.41443 0,-1.32796 -1.06572,-2.82328 -2.36826,-3.32293 -1.59813,-0.61306 -2.34346,-3.03237 -2.29194,-7.43955 0.0777,-6.63701 -0.43016,-11.94391 -2.35947,-24.66241 l -1.07625,-7.09487 4.00238,4.69865 c 4.00068,4.69665 6.8033,12.82603 5.03222,14.59652 -0.51627,0.5161 -0.93868,-0.28599 -0.93868,-1.78243 0,-1.49643 -0.66733,-2.30849 -1.48294,-1.80454 -2.38512,1.47357 1.15971,9.18495 5.77606,12.56514 8.98252,6.57725 30.40466,3.98525 30.40466,-3.67885 0,-1.60365 0.46448,-5.23728 1.03215,-8.07475 l 1.03216,-5.15903 -3.99495,1.00234 -3.99498,1.00232 5.43478,-10.23146 c 4.70818,-8.86355 8.8466,-13.38205 12.25645,-13.38205 0.51303,0 -0.2103,2.20971 -1.6074,4.91045 -1.94093,3.75213 -2.28506,7.10747 -1.4588,14.22413 0.85842,7.39375 0.53383,10.14898 -1.57459,13.36575 -2.21308,3.37643 -2.34196,4.80981 -0.77297,8.59641 l 1.88297,4.54432 -4.11743,4.89161 c -2.26455,2.69036 -4.19259,5.72402 -4.2845,6.74143 -0.41858,4.63311 0.60315,11.47422 1.96057,13.12712 0.97803,1.19096 0.79026,2.05437 -0.54474,2.50466 -1.58848,0.53577 -1.42349,1.98274 0.74888,6.56814 1.53242,3.23455 2.49413,6.36438 2.1372,6.9552 -1.67873,2.77857 2.58936,20.23272 5.77697,23.62463 5.34645,5.6891 13.55515,10.18826 16.96305,9.29736 1.70028,-0.44448 3.09144,-0.1786 3.09144,0.59085 0,0.76945 1.77432,1.84416 3.94293,2.38828 2.16861,0.54409 3.94293,1.62183 3.94293,2.39498 0,0.77315 3.54862,1.40572 7.88584,1.40572 4.33724,0 7.88587,0.68789 7.88587,1.52862 0,0.84075 2.30666,1.61448 5.12581,1.71936 2.81923,0.10485 8.49699,0.30389 12.61729,0.44217 4.12038,0.13828 7.49164,0.69015 7.49164,1.22633 0,1.40202 12.30875,3.30739 19.71472,3.05178 4.96199,-0.17127 7.55999,-1.43901 12.17125,-5.93903 3.22425,-3.14669 6.9274,-7.96467 8.22907,-10.70658 2.54801,-5.3675 16.98498,-19.70214 19.84298,-19.70214 0.9558,0 1.294,-0.71782 0.7518,-1.59514 -0.546,-0.88318 1.1143,-2.01515 3.7202,-2.53614 4.9433,-0.98832 15.8523,-9.09985 14.3328,-10.65733 -1.7458,-1.78921 -8.6193,-2.12565 -10.63,-0.52029 -1.5351,1.22574 -2.2816,0.7568 -2.9673,-1.86402 -0.5558,-2.12468 -1.7648,-3.1761 -3.0746,-2.67369 -4.0329,1.54708 -2.6772,-10.66601 1.7094,-15.39751 4.8203,-5.19952 6.5597,-5.25072 7.8201,-0.23024 1.1276,4.49122 2.8372,4.97813 5.6369,1.60563 1.7035,-2.05177 2.3398,-2.05564 5.2299,-0.0319 l 3.2908,2.30407 2.9374,-2.65723 c 2.3728,-2.14678 3.5121,-2.29828 5.93,-0.78869 1.8971,1.18451 3.3431,1.3021 3.9495,0.32122 1.5438,-2.49684 -6.4098,-4.65802 -23.4875,-6.38215 -25.74482,-2.59918 -36.08471,-6.37341 -44.87346,-16.3799 -7.54642,-8.59203 -8.59436,-16.91513 -2.42754,-19.28077 1.84732,-0.70865 4.35096,0.92416 8.31589,5.42337 7.20981,8.18149 13.48117,11.25313 28.41241,13.91583 13.8332,2.46693 36.4043,2.93526 36.4043,0.75531 0,-2.29389 -6.4203,-6.25422 -8.713,-5.37465 -1.1232,0.43088 -2.4882,-0.62134 -3.0333,-2.33825 -1.0905,-3.43473 -5.6026,-5.94674 -5.6026,-3.11918 0,0.97433 -1.4195,0.48737 -3.1543,-1.08215 l -3.1543,-2.85369 -2.8985,2.6221 -2.8983,2.62207 -2.8662,-3.16604 c -3.6578,-4.04046 -6.3392,-4.0089 -9.2244,0.10864 l -2.2945,3.27464 -4.95043,-4.45713 -4.95051,-4.45712 2.55904,-7.45037 c 2.11202,-6.1483 2.22999,-8.44688 0.67655,-13.1524 -2.45622,-7.44054 -0.83882,-8.94822 10.12075,-9.43348 10.5983,-0.46925 38.5178,-5.3062 42.5099,-7.36463 4.5006,-2.32084 12.0866,-2.85976 20.8223,-1.47927 l 7.9571,1.25739 2.6165,-3.46766 c 1.4391,-1.90723 4.3133,-3.89336 6.3871,-4.41366 4.3457,-1.0904 17.62,2.33809 17.7355,4.58082 0.296,5.75442 2.7125,8.24389 8.7939,9.05931 3.5974,0.48233 8.1407,2.47554 10.3304,4.53185 3.4216,3.21335 3.779,4.53548 2.8678,10.60912 -0.5723,3.81606 -1.8094,8.16852 -2.7487,9.67216 -1.2316,1.97154 -1.1949,5.83846 0.1308,13.86756 2.1847,13.22392 2.3953,25.50434 0.4377,25.50434 -0.771,0 -1.858,2.43157 -2.4156,5.4035 -0.5578,2.9719 -1.7913,5.66248 -2.7414,5.97904 -3.4475,1.14874 -3.3873,15.74043 0.1016,24.54435 3.695,9.32499 3.9102,10.3569 1.9017,9.11601 -0.7705,-0.47614 -1.3731,3.20679 -1.3387,8.18429 0.1578,22.85896 -0.5013,38.65642 -1.5686,37.5897 -0.6421,-0.64189 -2.0533,6.77785 -3.1363,16.48826 -1.083,9.71038 -2.6726,18.50256 -3.5322,19.53816 -1.6183,1.94921 -0.993,28.04088 0.7391,30.84246 0.5919,0.95758 16.7738,1.55469 42.1324,1.55469 h 41.171 l -1.0446,-81.59104 c -0.5746,-44.87506 -1.0455,-99.15081 -1.0466,-120.6128 v -39.02188 H 984.19373 773.77037 l -0.56088,119.43036 c -0.30847,65.68668 -0.32462,119.96244 -0.0358,120.61281 0.28875,0.65036 44.88293,1.18247 99.09819,1.18247 60.38715,0 98.22186,-0.56816 97.6664,-1.46668 z M 847.63949,-552.15057 c 0,-2.11671 0.70972,-4.28704 1.57717,-4.82297 0.86744,-0.53593 1.57718,0.0737 1.57718,1.35465 0,1.28096 0.43079,3.45131 0.95732,4.82295 0.6282,1.63654 0.0859,2.4939 -1.57718,2.4939 -1.63566,0 -2.53449,-1.36481 -2.53449,-3.84853 z m -6.83439,1.22081 c -0.57832,-0.5781 -1.0289,-3.94815 -1.00132,-7.48903 l 0.0501,-6.43794 2.31557,3.06046 c 3.85867,5.09988 2.63284,14.86245 -1.36446,10.86651 z m 16.32156,-3.28466 c 0.0125,-2.38467 0.71214,-5.39998 1.55303,-6.70071 1.1958,-1.84975 1.53411,-1.44071 1.55302,1.87774 0.0125,2.33349 0.74546,4.68836 1.62703,5.23302 2.09323,1.29325 0.42716,3.92571 -2.48454,3.92571 -1.43371,0 -2.26377,-1.60061 -2.24854,-4.33576 z m -5.85793,-11.4991 c 0.46354,-1.77197 0.24099,-5.31941 -0.49455,-7.88319 -1.78089,-6.20757 0.40467,-5.98724 2.77084,0.27932 1.27945,3.38852 1.37064,5.86519 0.29029,7.88318 -2.09618,3.91541 -3.62051,3.7495 -2.56658,-0.27931 z m -16.86279,-5.95922 c -2.31683,-3.74741 -4.06756,-17.22399 -3.14285,-24.19245 1.1574,-8.72202 3.69349,-7.54114 3.73487,1.73904 0.0142,3.29174 1.31254,6.78757 3.30844,8.91137 2.02241,2.15202 3.03642,4.91701 2.63927,7.19649 l -0.64497,3.70172 -1.69272,-3.94158 c -1.48174,-3.45026 -1.83276,-3.59516 -2.81576,-1.16241 -0.61767,1.52857 -0.29941,3.77124 0.70719,4.98372 1.15384,1.38982 1.25933,2.55721 0.28544,3.15891 -0.84963,0.52492 -1.92013,0.34727 -2.37891,-0.39481 z m 30.14761,-12.11792 c 0.90794,-8.49995 3.43587,-15.20202 3.56276,-9.44555 0.0382,1.7343 0.46167,4.61296 0.94104,6.39703 0.52616,1.95829 -0.36009,4.76426 -2.23639,7.08061 l -3.10797,3.83685 z m -9.70276,-9.1746 c 0.15313,-18.75664 0.79393,-22.42868 2.38601,-13.67237 0.70949,3.90216 1.72026,9.22333 2.24617,11.82477 0.61897,3.06205 -0.05,6.77133 -1.89703,10.51912 l -2.85319,5.78918 0.11789,-14.4607 z m -9.31418,12.07937 c -0.57831,-0.5781 -1.05146,-2.92568 -1.05146,-5.21689 0,-2.29118 -1.04203,-5.543 -2.31562,-7.22626 -3.13088,-4.138 -2.97049,-8.49466 0.50678,-13.76652 l 2.90187,-4.39952 1.00721,15.32803 c 1.01237,15.4066 0.88809,17.2174 -1.04878,15.28116 z m 9.65084,186.36153 c 0.34724,-8.25903 -0.15362,-11.38649 -2.18225,-13.62741 -3.87548,-4.28091 -5.36571,-2.259 -5.36571,7.28012 0,6.42478 0.67388,8.89715 2.76006,10.12624 2.26702,1.33566 2.3718,1.88145 0.58651,3.05536 -2.47698,1.62876 -0.85447,5.41827 1.92376,4.49309 1.0825,-0.36048 2.01058,-4.97616 2.27763,-11.3274 z m 53.0943,-27.7547 c 0.93536,-0.91681 0.32285,-1.46856 -1.63038,-1.46856 -1.72077,0 -7.00825,-2.50751 -11.74992,-5.57226 -4.7417,-3.06474 -10.39557,-6.00052 -12.56419,-6.52395 -2.16862,-0.52342 -4.83008,-1.65022 -5.9144,-2.50397 -3.73553,-2.94129 -2.14252,4.49542 1.89617,8.85173 2.12718,2.2945 3.36921,4.19542 2.76005,4.22426 -0.60918,0.029 0.65762,1.52044 2.81511,3.31462 3.39567,2.8239 5.19674,3.12008 13.40595,2.20444 5.2158,-0.58177 10.15752,-1.71858 10.98161,-2.52631 z m -58.58424,-48.21253 c -0.80443,-2.09561 -0.21834,-2.44924 3.03048,-1.82841 l 4.02781,0.76971 0.89965,-17.48541 c 0.49482,-9.61697 0.68691,-20.32336 0.42689,-23.79196 -0.26005,-3.46862 0.0302,-7.01605 0.64523,-7.88319 0.61491,-0.86716 1.59756,-4.23723 2.18369,-7.48903 l 1.06571,-5.9124 h -4.01442 c -2.20791,0 -4.01436,-0.70949 -4.01436,-1.57665 0,-0.86713 1.09982,-1.57662 2.44407,-1.57662 3.96295,0 11.75045,-4.62948 11.75045,-6.98534 0,-2.71387 -12.16723,-1.53581 -15.7717,1.52707 -1.92714,1.63754 -2.74281,1.5991 -4.39943,-0.20734 -3.40347,-3.71135 -8.21795,-2.77472 -8.21795,1.59873 0,3.02147 1.06761,4.05295 5.1258,4.95241 l 5.12583,1.13608 -3.54865,1.59508 c -3.8343,1.72348 -4.77374,4.26564 -1.57718,4.26784 1.50309,7.6e-4 1.97149,6.64999 1.97149,27.98534 0,25.3024 0.7478,33.50219 3.05533,33.50219 0.43371,0 0.33979,-1.16912 -0.20874,-2.5981 z m 375.28159,-12.1789 c 3.9077,-5.86557 21.3359,-68.08234 19.5671,-69.85077 -0.3554,-0.35522 -3.0927,0.52045 -6.0829,1.94593 l -5.4369,2.59177 -5.6124,19.15457 c -3.0871,10.53504 -8.1363,26.12698 -11.2207,34.6488 l -5.6077,15.4942 6.6047,-1.10338 c 3.6324,-0.60687 7.1374,-1.90336 7.7888,-2.88112 z m -467.79481,0.1931 c -2.67564,-6.4363 -18.26845,-55.01055 -19.12627,-59.58165 -0.80313,-4.27957 -2.40222,-6.24477 -7.23448,-8.89075 l -6.20343,-3.39682 v 3.13073 c 0,6.81992 15.0212,60.08864 19.16122,67.95018 1.76211,3.34609 14.78468,4.11202 13.40296,0.78831 z m 456.60921,-25.62036 c 5.327,-14.27936 11.0765,-36.8883 9.8753,-38.83165 -0.7441,-1.20346 -15.4334,-6.10254 -18.2978,-6.10254 -0.7098,0 -1.2632,15.43135 -1.2292,34.29188 l 0.063,34.29188 2.4421,-5.51824 c 1.343,-3.03502 4.5596,-11.19412 7.1475,-18.13133 z M 765.62657,-520.098 v -33.28487 l -5.85988,1.09895 c -3.22296,0.60443 -7.76962,2.08618 -10.10373,3.29279 l -4.24385,2.19382 2.37303,10.67826 c 3.44973,15.52343 15.14338,49.30592 17.067,49.30592 0.42208,0 0.76743,-14.97819 0.76743,-33.28487 z m 278.43483,-17.06415 c -1.3086,-2.11632 -15.3798,-5.87155 -30.0303,-8.01432 -14.52615,-2.12456 -25.73233,-6.45262 -30.87451,-11.9245 -7.00267,-7.45133 -8.8289,-2.46236 -2.04775,5.59382 5.4475,6.47178 14.38819,10.88799 27.21486,13.44277 12.2809,2.44603 37.079,3.07209 35.7377,0.90223 z m -298.2022,-18.17931 c 3.49877,-1.27026 9.37774,-3.07131 13.0644,-4.00237 l 6.70297,-1.69284 v -6.24577 c 0,-4.34306 -0.68198,-6.24581 -2.2386,-6.24581 -3.45166,0 -37.19125,11.23845 -37.18642,12.38657 0.003,0.8654 10.40088,7.43695 12.56038,7.93875 0.40471,0.0942 3.59849,-0.8683 7.09727,-2.13853 z m 491.9983,-1.44427 6.1768,-3.73764 -3.0225,-1.60447 c -3.2008,-1.69907 -33.5683,-11.40041 -35.686,-11.40041 -0.6851,0 -1.2455,2.76026 -1.2455,6.13389 v 6.13389 l 12.223,3.94995 c 15.3884,4.97284 14.2492,4.94508 21.5542,0.52479 z m -231.7124,-5.70603 c 0.5362,-0.86717 0.2233,-1.57665 -0.6952,-1.57665 -0.9188,0 -1.6703,0.70948 -1.6703,1.57665 0,0.86713 0.3128,1.57663 0.6952,1.57663 0.3828,0 1.1343,-0.7095 1.6703,-1.57663 z m 14.1947,0 c 0.5361,-0.86717 0.2231,-1.57665 -0.6954,-1.57665 -0.9187,0 -1.6703,0.70948 -1.6703,1.57665 0,0.86713 0.3128,1.57663 0.6954,1.57663 0.3827,0 1.1341,-0.7095 1.6703,-1.57663 z m 53.3473,-16.8038 c 1.7416,-1.74107 -2.266,-5.27692 -5.8309,-5.14467 -1.8457,0.0684 -2.4685,0.48233 -1.3842,0.9197 1.0843,0.43737 1.9714,1.80036 1.9714,3.0288 0,2.28695 3.3811,3.05819 5.2437,1.19617 z m -318.77016,-10.6133 9.92103,-2.01882 0.40101,-13.26739 0.401,-13.26735 -8.61105,9.45983 c -4.73608,5.20291 -10.87338,12.5552 -13.63846,16.33844 l -5.0274,6.87857 3.31642,-1.05222 c 1.82401,-0.57872 7.78087,-1.96071 13.23745,-3.07106 z m 473.00916,1.0084 c -1.749,-3.21686 -22.1824,-27.19702 -23.1748,-27.19702 -0.3691,0 -0.671,5.34342 -0.671,11.87427 0,8.15139 0.6179,12.04885 1.9713,12.43108 1.0844,0.30623 6.5846,1.62345 12.2231,2.92718 5.6385,1.30374 10.4541,2.44989 10.7015,2.547 0.2473,0.0972 -0.2254,-1.065 -1.0501,-2.58251 z m -419.57852,-47.29915 c 3.75377,-4.98611 13.59779,-16.07615 21.8756,-24.64451 l 15.05056,-15.57885 -9.46303,5.22768 c -20.83675,11.51085 -46.55863,29.898 -55.87022,39.93849 l -3.82357,4.12287 h 12.7028 12.70281 z m 41.6438,-0.50794 c 21.60861,-26.21752 57.3606,-47.72473 94.27875,-56.71496 60.31967,-14.68893 128.11407,6.67279 172.72417,54.42475 l 11.0833,11.86383 h 5.7249 c 7.1071,0 6.7359,-0.85134 -7.6849,-17.62964 -17.4567,-20.31043 -41.5847,-38.20606 -65.6301,-48.67748 -41.3288,-17.99825 -90.68974,-20.5217 -134.2354,-6.86244 -16.57608,5.1995 -40.65017,17.44673 -53.64151,27.28905 -11.27416,8.54133 -35.33156,33.3593 -39.6491,40.90258 l -2.84922,4.97793 6.00355,-0.0111 6.00357,-0.011 7.87199,-9.55102 z m 267.34432,8.15271 c 0,-2.5632 -24.1849,-24.06493 -36.1351,-32.12619 -70.3096,-47.42831 -159.1593,-38.94154 -218.54099,20.87467 l -12.58037,12.67243 H 983.7074 c 78.2697,0 133.6283,-0.58865 133.6283,-1.42091 z m -135.52715,-13.0253 -1.93597,-6.45978 -7.82077,0.92591 -7.82068,0.92594 3.28725,-4.615 c 1.80808,-2.53824 3.99952,-5.05502 4.86994,-5.59283 0.93279,-0.57617 -0.0697,-3.14313 -2.43909,-6.24903 -2.21206,-2.89918 -4.02187,-5.73431 -4.02187,-6.30029 0,-0.56601 2.95165,-0.7907 6.55953,-0.49937 l 6.55944,0.52974 2.29229,-6.83867 c 2.49898,-7.45428 3.76176,-7.17154 6.51663,1.45889 l 1.80541,5.6567 7.05958,-1.07099 c 3.88246,-0.58904 7.05936,-0.78138 7.05936,-0.42742 0,0.35396 -1.8346,3.0479 -4.07689,5.98654 l -4.07649,5.34297 4.46838,5.85625 4.4681,5.85628 -7.25671,-0.99433 -7.25709,-0.99434 -2.08783,6.32363 c -2.82512,8.55742 -3.88048,8.7597 -6.15252,1.1792 z m 6.19919,-7.34604 c 0,-1.71366 1.35273,-2.05047 5.52012,-1.37443 5.86131,0.95082 7.04214,-0.41064 3.15422,-3.63618 -1.30113,-1.07951 -2.36568,-3.20797 -2.36568,-4.72991 0,-1.52195 1.06455,-3.65041 2.36568,-4.7299 3.71382,-3.08121 2.80879,-4.14846 -2.94811,-3.47658 l -5.31417,0.62018 -1.87712,-5.27251 -1.87711,-5.27253 -2.19574,5.12408 c -1.79119,4.18031 -3.08112,5.12406 -7.00342,5.12406 -5.25384,0 -6.12024,1.67809 -2.44183,4.72992 3.23194,2.68136 2.97823,4.64909 -1.18273,9.17347 l -3.54866,3.85848 6.01718,-1.08845 6.01699,-1.08846 1.84402,4.88347 1.84392,4.88346 1.99613,-2.72913 c 1.09819,-1.50103 1.99631,-3.7506 1.99631,-4.99904 z m 198.72346,15.27556 c -15.1121,-13.58981 -39.3866,-30.33636 -56.9746,-39.30606 l -6.8005,-3.46827 11.9681,11.84822 c 6.5826,6.51651 16.4335,17.60699 21.8911,24.6455 l 9.9232,12.7973 13.545,-0.0671 13.5451,-0.0671 -7.0974,-6.38224 z m -81.4135,538.707558 c -2.0805,-5.420078 4.4334,-7.769868 7.2021,-2.598069 1.2288,2.295023 1.0272,3.21692 -0.8619,3.941601 -3.8304,1.469311 -5.387,1.139441 -6.3402,-1.343532 z m 21.5165,-10.257448 c -1.3179,-2.46186 -1.0585,-3.40486 1.28,-4.65613 2.0274,-1.08457 3.4946,-1.00764 4.7517,0.24913 2.5561,2.55521 2.2608,5.41049 -0.6759,6.53707 -3.476,1.33336 -3.5084,1.32042 -5.3558,-2.13007 z m -380.13368,-4.49085 c -7.40109,-4.00971 -12.61739,-11.95765 -12.61739,-19.22486 0,-4.97024 1.65942,-7.75667 11.14018,-18.70633 8.43515,-9.74203 10.89863,-13.62703 10.14536,-15.99959 -1.5604,-4.91476 1.84386,-3.7471 9.13609,3.13367 l 6.64191,6.26713 -4.12141,0.0395 c -4.15724,0.0398 -12.71219,7.95934 -22.34399,20.68453 -5.39966,7.13383 -5.37815,9.61985 0.13654,15.78977 7.45059,8.33586 11.73142,7.07811 25.23073,-7.41299 9.24191,-9.92084 11.34069,-13.07692 10.61588,-15.96381 -1.17957,-4.69819 0.93712,-4.55033 6.92153,0.48349 5.72828,4.8184 6.15449,6.95472 1.38747,6.95472 -2.29133,0 -7.50019,4.28637 -15.37742,12.65403 -13.48276,14.32216 -17.89598,16.17649 -26.89551,11.30082 z m 488.03778,-15.76685 c 1.2984,-4.08972 -24.6307,-30.26093 -29.981,-30.26093 -2.1073,0 -3.8315,-0.58957 -3.8315,-1.31017 0,-0.72062 5.2475,-6.39651 11.6608,-12.61311 9.8882,-9.58486 12.4881,-11.30292 17.1044,-11.30292 7.5373,0 11.1832,4.33871 10.4147,12.39403 -0.5229,5.48016 -0.267,6.06906 2.089,4.80866 7.9103,-4.23204 17.9454,0.22831 19.5318,8.68133 1.3462,7.17419 -1.19,11.39758 -13.7273,22.85887 -10.6755,9.75929 -14.9003,11.90791 -13.2609,6.74424 z m 14.151,-14.61552 c 4.7099,-5.59546 5.1869,-10.23657 1.4729,-14.33878 -3.779,-4.17455 -9.2177,-3.54736 -15.1079,1.74227 l -5.151,4.62551 6.2347,6.41095 c 3.429,3.52603 6.7371,6.41094 7.3513,6.41094 0.6144,0 2.9542,-2.18289 5.2,-4.85089 z m -18.4932,-15.92022 c 4.512,-4.23729 4.7201,-10.88183 0.4615,-14.73444 l -3.1888,-2.8849 -5.5342,2.63818 c -7.8703,3.75173 -8.3534,6.62981 -2.1821,12.99494 2.8875,2.97788 5.5972,5.41432 6.0215,5.41432 0.4245,0 2.4145,-1.54265 4.4221,-3.4281 z m 41.5023,-7.3134 c 0,-5.51587 -27.8633,-27.35227 -33.1413,-25.97256 -1.7564,0.45909 -3.1334,0.039 -3.1334,-0.95575 0,-2.02223 20.2282,-29.05163 22.3613,-29.8797 2.2393,-0.86924 9.6561,4.64628 8.1677,6.0739 -0.7432,0.713 -3.0532,1.5338 -5.1332,1.824 -2.0801,0.29024 -5.9488,3.21118 -8.5974,6.49101 l -4.8151,5.96334 5.7415,5.73965 c 4.9675,4.96594 6.085,5.45473 8.2888,3.62614 4.4981,-3.7316 5.7722,-7.5456 3.6539,-10.9363 -2.801,-4.48408 -0.5147,-5.71935 4.5867,-2.47787 10.6075,6.74 14.5543,13.51808 5.9722,10.25631 -3.1822,-1.20941 -4.3618,-0.76745 -7.0413,2.63784 -4.4928,5.70955 -4.1092,7.02375 3.4618,11.8609 l 6.658,4.25386 2.8446,-2.57349 c 1.5645,-1.41541 4.2569,-4.85793 5.9832,-7.65003 2.6424,-4.27428 2.8431,-5.72445 1.2701,-9.17606 -2.229,-4.88989 -1.1456,-6.50488 2.9084,-4.33601 3.9397,2.10779 7.9114,9.57578 5.8474,10.99467 -0.8642,0.59395 -6.0655,6.9332 -11.5587,14.08719 -9.7421,12.68724 -14.3252,15.9343 -14.3252,10.14896 z m -581.97607,-1.54329 c 0,-0.68658 -4.56719,-7.21414 -10.14935,-14.50571 -9.60934,-12.55202 -11.45665,-17.14414 -6.06465,-15.07574 1.43871,0.5519 7.33281,-2.63757 14.78048,-7.99809 13.65676,-9.82962 17.94066,-13.94541 17.97261,-17.26726 0.0487,-5.07279 3.70896,-2.24533 14.44788,11.16093 l 11.36646,14.18975 -3.31417,3.54744 c -4.37605,4.68407 -6.49843,4.49472 -5.25231,-0.46863 0.74064,-2.94988 -0.15612,-5.66162 -3.37764,-10.21448 -2.41227,-3.40914 -5.36677,-6.21358 -6.56557,-6.23211 -2.54967,-0.0395 -12.80718,6.04022 -12.7957,7.58397 0.005,0.57964 1.64625,3.10077 3.64879,5.60248 3.14161,3.92477 4.10079,4.30258 6.99373,2.75486 3.46103,-1.85167 5.73594,-0.47821 3.83443,2.315 -1.74326,2.56071 -12.26644,10.08953 -14.10237,10.08953 -1.178,0 -1.15388,-1.4081 0.0801,-4.67613 1.54541,-4.0929 1.30711,-5.16404 -1.91061,-8.58801 l -3.67628,-3.91184 -6.11223,4.91025 c -3.36172,2.70065 -6.11223,5.69413 -6.11223,6.65213 0,0.95804 2.18084,4.38672 4.84634,7.61934 3.87529,4.69982 5.92937,5.87745 10.25161,5.87745 6.23558,0 6.90828,1.92208 1.9,5.42884 -3.66511,2.56629 -10.68927,3.3588 -10.68927,1.20603 z m 611.13367,-43.12447 c -2.4212,-5.25671 -25.5366,-17.83276 -32.7774,-17.83276 -7.3728,0 -7.2498,-0.99819 2.1458,-17.41414 7.36,-12.85926 12.1529,-16.23684 19.2256,-13.54865 4.7924,1.8215 7.4832,6.10179 7.4832,11.90416 v 4.08161 l 3.7443,-2.45249 c 3.0774,-2.01567 5.0813,-2.15297 11.2508,-0.77082 6.3715,1.4274 7.9466,1.28349 10.4176,-0.95174 l 2.9106,-2.63343 0.995,2.59174 c 0.5474,1.42546 -0.2261,4.4546 -1.7183,6.7314 l -2.7134,4.13963 -11.1218,-1.03329 -11.1215,-1.03331 -3.6872,3.46288 c -2.0283,1.90458 -3.6875,4.38899 -3.6875,5.52095 0,3.14011 12.3381,8.8406 16.7428,7.73548 4.6191,-1.15889 4.7291,0.49757 0.574,8.63924 -3.5629,6.98134 -6.3427,7.90029 -8.6626,2.86354 z m -10.9321,-25.16908 c 3.1723,-6.13249 1.8536,-11.98582 -3.2211,-14.29721 -4.3592,-1.98547 -10.4273,0.98062 -13.4121,6.55572 -1.4638,2.73447 -0.7314,3.71639 5.8591,7.85324 4.1424,2.60044 7.6911,4.74153 7.8857,4.75801 0.1945,0.0164 1.4944,-2.17493 2.8884,-4.86976 z m -632.92789,20.73574 c -1.95174,-3.41693 -3.54862,-6.97243 -3.54862,-7.90109 0,-0.95067 1.55062,-1.31868 3.54862,-0.84215 4.94212,1.17863 35.29279,-17.87506 34.62866,-21.73933 -0.88364,-5.14146 4.22859,-2.69479 8.16804,3.90919 4.202,7.04404 4.02782,9.84302 -0.52263,8.39927 -5.04471,-1.60059 -34.78248,16.75314 -34.78248,21.46724 0,4.92215 -3.73742,3.27926 -7.49159,-3.29313 z m -10.86867,-20.3424 c -1.47403,-1.04023 -16.33752,-32.07732 -16.33752,-34.11504 0,-0.62501 1.81438,-0.68116 4.03194,-0.12472 2.9164,0.73172 8.55178,-1.0052 20.36793,-6.27767 13.06188,-5.82838 16.5304,-8.06375 17.3061,-11.15334 0.54022,-2.15163 1.70518,-3.4099 2.62876,-2.83929 0.91222,0.5636 5.13676,8.21962 9.38783,17.01335 l 7.72923,15.98861 -3.30011,2.75911 c -1.81507,1.51753 -4.36201,2.75911 -5.6599,2.75911 -1.62882,0 -2.0078,-0.85466 -1.22349,-2.75911 2.56914,-6.23854 2.46984,-8.179 -0.74057,-14.46981 -3.54307,-6.94263 -3.5613,-6.9467 -13.85847,-3.09585 -6.91908,2.58753 -2.31409,14.24923 5.06956,12.83824 7.18089,-1.37227 4.32475,2.78207 -4.77629,6.94725 -9.52291,4.35826 -12.32263,3.97517 -7.76238,-1.06216 l 2.89462,-3.19744 -2.61276,-5.47717 -2.61277,-5.47717 -7.12593,3.46088 c -8.12161,3.94445 -8.69303,6.19393 -3.93955,15.50844 2.26274,4.43378 4.20581,6.25074 6.703,6.26787 4.75317,0.0327 8.39364,2.36592 5.99935,3.84517 -3.34137,2.0644 -10.7257,3.67906 -12.16858,2.6608 z m 682.88186,-23.58485 c -0.8818,-3.37023 -9.1118,-7.47099 -27.7096,-13.80684 -6.0965,-2.0769 -11.0048,-2.9898 -11.5275,-2.14406 -0.5009,0.8101 -1.6674,1.47289 -2.5921,1.47289 -2.2315,0 -0.4171,-8.93431 2.8165,-13.86761 l 2.4806,-3.78431 2.1409,3.05597 c 1.1776,1.68078 9.6777,6.0567 18.8887,9.72429 18.6347,7.41987 20.4002,7.21406 22.2407,-2.59296 0.7239,-3.85764 0.2644,-6.89283 -1.4939,-9.86849 -3.1864,-5.39222 -1.8856,-6.8319 3.6069,-3.99257 6.1022,3.15448 8.7172,6.68918 6.7378,9.10672 -0.8877,1.08395 -3.8602,7.81095 -6.6053,14.94888 -5.3201,13.83254 -7.6435,16.87111 -8.9837,11.74809 z m -700.45356,-18.02545 c -4.04641,-4.92133 -2.25894,-12.23773 3.77898,-15.46802 7.03685,-3.76474 11.7813,-10.63102 10.63904,-15.39711 -0.55561,-2.31828 -1.24488,-4.49036 -1.53171,-4.82679 -1.32612,-1.5556 -15.10967,3.75031 -16.5029,6.3527 -0.8629,1.6118 -2.16756,2.93053 -2.89922,2.93053 -1.59885,0 -4.53429,-7.13887 -5.18641,-12.6131 l -0.46954,-3.94161 5.69959,0.49297 c 10.45462,0.90422 37.67262,-7.64426 37.67262,-11.83201 0,-5.69015 4.19721,-0.0729 7.38619,9.88518 4.39564,13.72594 4.66316,22.91345 0.76977,26.43573 -4.0213,3.63799 -12.71659,3.31948 -16.9108,-0.61948 l -3.43804,-3.22875 -0.90101,4.41124 c -0.60249,2.94966 -3.02438,5.70997 -7.30954,8.33088 -4.45146,2.72266 -6.4085,5.00964 -6.4085,7.48904 0,3.94384 -1.8932,4.63347 -4.38852,1.5986 z m 34.29336,-26.70598 c 3.65141,-3.91802 4.14136,-8.92518 1.24429,-12.7165 -1.69324,-2.21592 -3.02871,-2.3322 -9.46302,-0.82403 -6.34348,1.48686 -7.49157,2.33028 -7.49157,5.5036 0,4.17628 6.43991,11.48749 10.11851,11.48749 1.30679,0 3.82309,-1.55275 5.59179,-3.45056 z m 680.3219,5.24098 c -2.5696,-4.11279 -36.0186,-12.48073 -39.9867,-10.00341 -1.5162,0.94647 -3.1751,1.30253 -3.6864,0.79127 -1.8072,-1.80667 3.0505,-17.80449 5.4065,-17.80449 0.7037,0 1.73,1.41898 2.2805,3.15329 0.5509,1.7343 1.4857,3.18271 2.0778,3.21869 0.5922,0.0359 8.8836,2.10741 18.4255,4.60318 l 17.3488,4.53778 2.6037,-2.34095 c 3.7789,-3.39786 4.6401,-0.55127 2.4612,8.13605 -2.1204,8.45402 -4.1642,10.1374 -6.9309,5.70859 z m 6.5244,-24.87706 c -2.9382,-4.65607 -37.5209,-8.86173 -41.3548,-5.02919 -1.4029,1.40261 -2.0812,1.2143 -2.8511,-0.79186 -1.5792,-4.11397 0.6089,-10.25947 4.4806,-12.58345 1.938,-1.1633 10.4435,-6.21738 18.901,-11.2313 8.4575,-5.01388 15.3774,-9.67731 15.3774,-10.36313 0,-0.68584 -4.4359,-1.70871 -9.8573,-2.27305 -5.4214,-0.56433 -11.8095,-1.39998 -14.1957,-1.85699 -3.0507,-0.58427 -4.6226,-0.0916 -5.2948,1.65957 -0.5258,1.36979 -1.5897,2.49052 -2.3645,2.49052 -1.8787,0 -1.7617,-11.1951 0.1483,-14.18974 1.2888,-2.02032 1.8501,-1.88058 3.8518,0.959 1.9053,2.70305 5.6701,3.82717 20.1535,6.01754 23.7128,3.58624 24.9073,3.86082 24.9073,5.72455 0,1.67838 -23.4038,17.32647 -35.5411,23.76301 -3.8733,2.05412 -7.0424,4.14546 -7.0424,4.64742 0,0.50197 6.7812,1.79953 15.0691,2.88351 12.117,1.58474 15.5394,1.58077 17.4692,-0.0204 3.3413,-2.77221 5.1734,0.4871 3.8658,6.8779 -1.1643,5.69106 -3.4048,6.9893 -5.7228,3.31596 z m -699.40225,-12.44317 c 0,-0.46408 1.14537,-2.59126 2.54526,-4.72705 1.8875,-2.87972 2.27153,-5.70804 1.48606,-10.94426 -0.58258,-3.88354 -1.68488,-7.44754 -2.44956,-7.91998 -0.76471,-0.47245 -4.30944,-0.39238 -7.87715,0.17792 l -6.48679,1.03694 0.4767,5.6977 c 0.38297,4.57736 1.19236,5.79914 4.11623,6.21344 2.00174,0.28365 3.36832,1.34788 3.03687,2.36496 -0.77773,2.3864 -14.12639,5.02456 -17.94335,3.54622 l -2.92759,-1.13386 2.98369,-2.19551 c 1.64106,-1.20751 3.69846,-2.43366 4.57205,-2.72476 0.94064,-0.31345 1.15874,-2.81832 0.53488,-6.14272 l -1.05347,-5.61344 -8.25008,1.45348 c -4.53756,0.79942 -9.09005,2.54486 -10.11663,3.87878 -2.79416,3.63063 -4.67477,1.4607 -5.79125,-6.68209 -1.21047,-8.82828 -0.099,-11.21337 3.64649,-7.82491 2.41172,2.18184 4.69378,2.29099 17.52238,0.83826 18.6665,-2.11387 21.67653,-2.89303 23.47435,-6.07647 2.70173,-4.78402 4.78546,0.34218 6.99931,17.21888 1.45202,11.0691 1.64208,17.10618 0.58024,18.43145 -1.52544,1.90393 -9.07864,2.84157 -9.07864,1.12702 z m -24.68989,-61.02397 c 0.89179,-3.55205 0.36183,-4.60281 -3.28953,-6.52198 l -4.35259,-2.28775 4.49236,-1.1338 c 3.94696,-0.99613 4.3823,-1.68407 3.58565,-5.66595 l -0.90673,-4.53217 3.94634,2.58486 3.94633,2.58487 3.11393,-2.81711 3.11393,-2.81714 v 4.86804 c 0,3.66317 0.87832,5.14709 3.54864,5.99553 l 3.54863,1.1275 -3.54863,1.58463 c -2.50146,1.11702 -3.54864,2.93569 -3.54864,6.16304 v 4.57837 l -3.36248,-2.35438 -3.36249,-2.35438 -3.9939,2.61602 -3.99389,2.61605 z m 706.37694,-0.21595 c 0.6418,-3.35594 0,-4.67498 -3.0214,-6.26021 l -3.8346,-2.0084 3.8469,-1.75212 c 3.0708,-1.39872 3.6831,-2.608 3.0352,-5.99565 l -0.8115,-4.24355 4.2017,2.75196 4.2014,2.752 3.3432,-2.96692 3.3433,-2.96692 -0.8226,4.45849 c -0.6674,3.6165 -0.096,4.78936 3.0241,6.21059 l 3.8466,1.75212 -3.8343,2.0084 c -3.0039,1.57327 -3.6614,2.91384 -3.0355,6.18756 l 0.7993,4.17919 -3.8461,-2.5191 -3.8458,-2.5191 -3.7015,2.59173 -3.7014,2.59174 z m -17.6998,-43.09356 c -4.2052,-3.75607 -5.2759,-6.05243 -5.9134,-12.68459 -0.4281,-4.454 -0.3457,-9.82057 0.1828,-11.92569 1.1787,-4.69563 9.6635,-8.81072 12.4413,-6.03402 1.3509,1.35049 0.5396,3.1029 -3.2421,7.00339 -5.716,5.89554 -6.533,11.88777 -2.1596,15.84418 6.2182,5.62544 9.7164,3.00433 14.4858,-10.85379 4.0075,-11.64454 6.9778,-14.91637 13.5414,-14.91637 8.3789,0 13.1814,5.38841 14.7542,16.55469 0.9343,6.633 0.791,10.01775 -0.4804,11.32689 -2.2341,2.30073 -11.1463,4.63898 -10.2578,2.69122 0.3528,-0.77275 1.987,-4.04678 3.6323,-7.27563 3.7334,-7.32781 1.6526,-13.83735 -4.4237,-13.83735 -4.9259,0 -6.4885,2.0863 -9.5964,12.81306 -2.8887,9.97112 -5.9752,13.51023 -13.0081,14.91635 -3.8859,0.77692 -5.8183,0.074 -9.9563,-3.62234 z m -704.99371,-2.71983 c 0,-2.97857 0.75651,-7.40462 1.68108,-9.83567 l 1.68109,-4.42007 2.65614,3.43221 2.65614,3.43221 7.63053,-1.45807 c 10.2604,-1.96055 19.96997,-4.93524 19.96997,-6.11814 0,-1.59736 -21.43025,-14.3029 -24.12447,-14.3029 -1.37569,0 -2.93991,0.70949 -3.47603,1.57663 -2.49478,4.03526 -4.30765,1.17301 -3.54441,-5.59611 1.00935,-8.95211 2.25139,-10.26068 5.62374,-5.92513 1.45868,1.87531 8.68485,7.11894 16.05813,11.65248 24.53463,15.08537 25.6304,15.8703 24.17966,17.32055 -0.77969,0.77942 -11.255,3.87251 -23.27849,6.87357 -12.02346,3.00103 -22.60983,6.20515 -23.52523,7.12023 -2.9303,2.92931 -4.18785,1.80268 -4.18785,-3.75179 z m 697.33561,-32.02954 c -2.2811,-4.30472 -4.7411,-14.27462 -3.763,-15.25224 0.4847,-0.48451 1.8577,-0.0707 3.0515,0.91966 1.6406,1.36113 3.1513,1.2758 6.1895,-0.34962 4.4303,-2.37036 4.4211,-5.68258 -0.049,-16.3726 -2.8794,-6.88934 -7.7148,-7.50129 -10.922,-1.38225 l -2.2116,4.21975 -1.9547,-3.65122 c -2.7418,-5.1213 -4.6473,-12.26152 -3.5619,-13.34668 0.502,-0.50189 2.4832,0.11604 4.4022,1.37302 2.1704,1.42165 9.67,2.64131 19.8405,3.22674 24.1309,1.38901 29.7573,2.27614 29.7573,4.69197 0,1.16424 -7.7744,8.74774 -17.2762,16.85225 -9.5019,8.10449 -17.7406,16.3318 -18.3082,18.28288 -1.2375,4.25223 -3.2025,4.55033 -5.1962,0.78834 z m 26.586,-33.63605 c 0,-0.79427 -3.5487,-1.44415 -7.8858,-1.44415 -8.5232,0 -9.2339,0.98051 -6.2998,8.69444 l 1.5857,4.16982 6.3,-4.98797 c 3.4649,-2.74339 6.2999,-5.63786 6.2999,-6.43214 z m -671.68647,25.71073 c -1.27399,-2.37964 -6.20549,-4.77897 -16.78677,-8.16734 -16.29176,-5.21693 -19.72897,-5.69146 -22.33754,-3.08378 -3.79605,3.79476 -3.34884,-2.0333 1.38535,-18.0549 l 4.95496,-16.76852 h 4.37588 c 5.85353,0 7.23827,2.72028 2.48652,4.88462 -3.60477,1.64187 -7.38749,9.86861 -7.38749,16.0665 0,2.6882 9.84225,6.64864 13.26239,5.33665 1.15063,-0.44139 2.49284,-2.8119 2.98267,-5.26779 0.67508,-3.38489 0.0636,-5.10677 -2.52787,-7.11658 -5.38863,-4.17932 -1.85236,-5.25658 7.54004,-2.29688 10.01423,3.15564 12.55517,5.7365 5.64777,5.7365 -2.65352,0 -4.82459,0.18206 -4.82459,0.40455 0,0.22253 -0.66055,2.70707 -1.4679,5.52123 -1.6731,5.8317 -0.20538,7.21573 9.6029,9.05513 l 5.71116,1.07106 2.66053,-8.00747 2.66056,-8.00744 -3.38233,-4.74846 -3.38233,-4.74843 h 3.087 c 1.69785,0 4.66704,1.279 6.59819,2.8422 l 3.51117,2.84223 -4.33705,15.27762 c -2.38538,8.40272 -5.21281,16.47492 -6.28318,17.93825 l -1.94612,2.66057 z m 11.97772,-42.89902 c -1.18011,-4.51126 -28.80594,-17.83419 -34.64089,-16.70605 -5.79263,1.11999 -5.60142,-0.57764 1.78479,-15.84627 4.68325,-9.68106 7.20976,-13.10568 10.75022,-14.57171 8.13108,-3.36686 16.24836,2.04096 16.24836,10.82485 v 3.34634 l 3.3184,-2.32352 c 2.36119,-1.65327 5.71117,-2.07664 11.61311,-1.46771 5.31948,0.54882 8.6883,0.21914 9.39204,-0.91916 1.86037,-3.00914 4.06556,-1.96646 4.06556,1.92226 0,2.03349 -1.40148,4.96512 -3.11436,6.51474 -2.59143,2.34441 -4.70896,2.63713 -12.61141,1.74337 l -9.4971,-1.07411 -3.94884,3.94756 c -2.1719,2.17113 -3.9489,4.72918 -3.9489,5.6845 0,2.60134 13.79599,8.20514 17.39164,7.06431 4.15155,-1.31721 4.1403,3.0375 -0.0253,9.86755 -3.58306,5.87465 -5.6061,6.46959 -6.77714,1.99305 z m -12.07656,-25.46481 c 1.72051,-4.15221 1.67945,-5.60762 -0.25563,-9.06568 -2.96614,-5.30056 -7.59412,-5.91229 -12.93811,-1.71012 -5.78617,4.54988 -5.30842,7.98193 1.68506,12.10484 7.85286,4.62954 9.09936,4.48559 11.50868,-1.32904 z m 626.07751,18.8199 c -1.7449,-2.86118 -3.1754,-6.82342 -3.1784,-8.80503 0,-3.00786 0.4721,-3.34702 2.89,-2.05345 2.1965,1.17506 6.6743,0.006 18.5318,-4.83721 8.5996,-3.51266 16.2384,-6.9515 16.9753,-7.64183 2.6319,-2.46628 -0.7349,-7.99474 -5.4423,-8.93587 -6.3059,-1.26081 -7.1837,-3.35791 -2.1983,-5.25276 9.166,-3.48365 8.5376,-4.32625 22.0409,29.56382 1.2871,3.23054 0.9286,4.37788 -2.1462,6.86683 -6.7386,5.45466 -11.0683,2.60284 -5.4576,-3.59472 2.1209,-2.34281 2.2794,-3.62831 0.837,-6.79267 l -1.7789,-3.90297 -13.0601,5.60826 c -7.1831,3.08457 -15.012,6.33217 -17.3975,7.21692 -2.3854,0.88474 -4.3371,2.56157 -4.3371,3.7263 0,4.43096 -3.2311,3.83113 -6.2786,-1.16562 z m -9.8874,-21.88311 c -4.5471,-2.64755 -3.4005,-10.2609 2.7598,-18.32636 6.2071,-8.12618 6.7554,-11.29306 2.76,-15.94383 l -2.76,-3.21304 -6.0982,3.96615 c -3.3543,2.18139 -6.4609,5.35138 -6.9038,7.04444 -1.0744,4.10661 -3.5871,3.03859 -7.9312,-3.37102 -4.1373,-6.10423 -3.8387,-8.86091 0.8856,-8.17889 6.201,0.89515 33.4538,-15.82238 33.4538,-20.52116 0,-1.55039 0.6735,-2.81889 1.4968,-2.81889 3.5938,0 17.4292,22.71456 17.4292,28.61488 0,8.34244 -10.6935,13.62889 -18.7979,9.29299 -2.3696,-1.26774 -2.7136,-0.95363 -2.1589,1.9708 0.446,2.35058 -1.1998,5.64754 -5.0739,10.16544 -4.1132,4.79628 -5.45,7.58198 -4.7287,9.85398 1.1076,3.48808 -0.135,3.90827 -4.3326,1.46451 z m 25.3135,-31.7218 c 2.7217,-2.72055 2.331,-11.54796 -0.619,-13.99547 -2.1186,-1.75757 -3.5998,-1.50669 -9.4632,1.60271 -3.8232,2.02753 -6.9512,4.20165 -6.9512,4.83137 0,0.62971 1.471,3.01432 3.2689,5.29912 3.5169,4.46949 10.4213,5.60427 13.7645,2.26227 z m -606.89546,14.86778 c 0,-1.75274 -3.9592,-5.20527 -10.64592,-9.28352 -15.84321,-9.66282 -20.72847,-11.84164 -24.13069,-10.76217 -4.03975,1.28175 -3.91178,-1.08952 0.47311,-8.76616 3.77051,-6.60105 7.49157,-8.21004 7.49157,-3.23936 0,1.78098 2.40038,4.43979 5.91437,6.55114 19.47475,11.70118 24.85248,14.24187 28.30922,13.37456 4.57612,-1.14814 4.61894,0.90033 0.18376,8.78902 -3.59081,6.38682 -7.59542,8.14595 -7.59542,3.33649 z m 18.74412,-24.95039 c -0.0999,-0.78478 -0.27748,-2.27055 -0.39429,-3.30172 -0.11677,-1.03115 -6.95227,-6.92327 -15.1899,-13.09359 l -14.97754,-11.21876 -2.69386,3.32568 c -2.10119,2.59398 -2.3498,4.23047 -1.1299,7.43797 2.35844,6.20104 -0.53918,7.35536 -5.49177,2.18773 l -4.39432,-4.58512 11.37871,-15.13326 c 6.2583,-8.32329 12.19894,-15.13324 13.20138,-15.13324 2.51234,0 8.8332,4.57682 8.8332,6.39595 0,0.81797 -2.39713,1.48724 -5.32697,1.48724 -2.92983,0 -6.22157,1.07754 -7.31495,2.39452 -2.61505,3.14989 -0.41412,5.54897 15.79085,17.2127 9.19143,6.61564 13.37833,8.74503 15.7286,7.99935 1.76159,-0.55892 3.20288,-0.57842 3.20288,-0.0432 0,3.9702 -10.78567,17.49097 -11.22212,14.0679 z m 534.84304,-1.99417 c 0,-0.74561 -4.6132,-6.90264 -10.2517,-13.68231 -5.6383,-6.77965 -10.2516,-12.90975 -10.2516,-13.62241 0,-0.71268 1.7031,-1.29578 3.7845,-1.29578 6.465,0 30.9132,-19.91249 30.9132,-25.17804 0,-1.76078 0.6743,-3.20144 1.4983,-3.20144 0.8239,0 6.5811,6.03411 12.7936,13.40915 l 11.2955,13.40916 -2.5782,3.93387 c -3.5014,5.34183 -5.6602,4.94465 -5.6602,-1.04138 0,-5.26833 -6.6038,-15.52105 -9.9972,-15.52105 -1.0729,0 -4.2484,1.95109 -7.0563,4.33575 l -5.1059,4.33575 3.6883,4.54858 3.6883,4.54863 3.5834,-1.91724 c 5.5327,-2.95996 5.9467,-0.57474 0.8328,4.79696 -7.9624,8.3636 -13.9382,10.10183 -10.1031,2.9389 1.6066,-3.00118 1.3091,-4.04226 -2.141,-7.49111 l -4.007,-4.00554 -5.6172,4.28305 c -6.7553,5.15073 -6.9501,7.3511 -1.28,14.45491 3.5576,4.45731 5.4001,5.43396 10.2514,5.43399 7.1038,6e-5 7.6095,2.19616 1.2614,5.47779 -5.1432,2.65875 -9.5413,3.14267 -9.5413,1.04981 z m -520.46657,-23.92857 c 0,-2.63335 -4.00366,-13.67219 -8.89699,-24.53075 -6.37873,-14.1547 -8.41418,-20.2255 -7.19117,-21.4481 1.22303,-1.2226 7.57366,0.58872 22.4368,6.3994 11.40203,4.45758 22.79991,8.10468 25.32863,8.10468 6.00039,0 5.80446,2.26221 -0.76471,8.82918 -6.36581,6.36366 -8.83216,6.76829 -8.83216,1.449 0,-2.89809 -1.06302,-4.17826 -4.10291,-4.94096 -3.38837,-0.85015 -5.22421,0.0913 -10.54169,5.4072 l -6.43878,6.43662 1.90682,4.18358 c 1.54946,3.39955 2.6383,4.00004 5.81016,3.20423 4.99547,-1.25336 4.94265,0.75738 -0.17975,6.84295 -5.28792,6.28219 -8.53425,6.30615 -8.53425,0.063 z m 4.23557,-23.8664 c 2.00766,-1.88547 3.65028,-3.98072 3.65028,-4.65614 0,-1.36205 -14.33811,-8.06417 -15.26648,-7.1361 -0.89438,0.89407 5.53314,15.22035 6.82864,15.22035 0.62549,0 2.77989,-1.54265 4.78756,-3.42811 z m 485.279,9.28461 c -5.0287,-2.87338 -22.672,-19.6354 -22.672,-21.5397 0,-0.9129 1.3587,-1.65984 3.0193,-1.65984 4.1638,0 26.8902,-24.9543 26.9223,-29.56196 0.017,-1.95108 0.5852,-3.54743 1.2697,-3.54743 0.6848,0 6.3626,4.66914 12.6175,10.37585 12.2474,11.1743 13.8679,15.31675 8.8137,22.52997 -2.0853,2.97657 -3.6882,3.54359 -8.6742,3.06827 -5.8738,-0.55996 -7.8603,0.60146 -4.5388,2.65354 0.8673,0.53594 1.5772,3.78093 1.5772,7.2111 0,5.3443 -0.7336,6.6837 -5.1258,9.36089 -5.8752,3.58092 -8.4978,3.80116 -13.2089,1.10931 z m 6.9433,-8.31086 c 5.0726,-3.55174 4.562,-10.13354 -1.2154,-15.66682 l -4.721,-4.52137 -4.0984,3.83223 c -6.6496,6.21798 -7.6371,9.14276 -4.3288,12.82101 2.4832,2.76051 7.2402,5.55465 10.0265,5.88936 0.4576,0.055 2.4093,-1.00453 4.3371,-2.35441 z m 14.5454,-19.61859 c 3.9958,-3.99439 3.972,-6.41903 -0.1141,-11.61217 -4.2397,-5.38815 -6.1018,-5.23777 -12.1298,0.97946 -5.2577,5.42279 -5.1111,6.82752 1.1608,11.11826 5.0562,3.45884 7.2335,3.36345 11.0836,-0.48555 z m -477.77299,4.05831 c -4.95281,-5.27025 -3.19604,-7.17618 4.67802,-5.07518 8.05055,2.14809 14.6751,-0.88481 15.40097,-7.05101 0.83681,-7.10852 -2.95646,-8.55871 -16.4558,-6.2912 l -11.8095,1.98368 -3.91794,-2.56627 c -9.56312,-6.26388 -7.46632,-17.5446 4.79927,-25.81973 8.55767,-5.77356 8.47534,-5.76165 13.10969,-1.89681 5.47091,4.56247 4.48779,6.58294 -2.64808,5.44224 -5.2855,-0.8449 -6.79296,-0.3945 -10.25161,3.06298 -4.75373,4.75214 -4.96862,6.21148 -1.4348,9.74411 1.81569,1.81511 4.11563,2.34272 7.49154,1.71858 2.67934,-0.49534 8.53679,-1.36156 13.01661,-1.92491 l 8.14514,-1.02429 4.07796,4.07658 c 7.41557,7.41308 4.10354,18.64309 -7.5039,25.44321 -8.53019,4.99732 -12.13243,5.03574 -16.69757,0.17802 z m 421.83849,-5.79828 c -6.4718,-5.68045 -6.8998,-7.30817 -2.105,-8.00436 4.787,-0.69502 24.8634,-27.1786 23.7705,-31.35653 -1.1457,-4.3798 3.0548,-3.89122 8.9135,1.03674 5.5034,4.62937 6.1696,6.95473 1.9919,6.95473 -4.0969,0 -24.7079,27.55298 -24.2995,32.48392 0.4165,5.03167 -1.5746,4.76339 -8.2714,-1.1145 z m -26.048,-18.02265 c -13.6438,-8.60542 -16.7577,-11.77014 -11.5812,-11.77014 3.1093,0 3.549,-0.57509 14.8502,-19.41838 4.5803,-7.63715 7.0876,-13.48286 6.5934,-15.37222 -0.4387,-1.6768 -0.2791,-3.0487 0.3545,-3.0487 2.8757,0 13.4105,7.11312 13.4105,9.05486 0,1.19222 -0.6635,1.75779 -1.4745,1.25678 -1.8238,-1.12684 -7.3209,5.98343 -15.7965,20.43278 l -6.474,11.03648 4.0747,3.54743 c 4.3462,3.78399 10.1279,4.54467 14.9467,1.96654 4.7738,-2.55403 5.133,0.85269 0.651,6.17732 -2.2515,2.67487 -4.563,4.79821 -5.1364,4.71855 -0.5735,-0.0797 -7.0618,-3.94126 -14.4184,-8.5813 z m -330.34001,-14.00211 c 1.37777,-5.48755 -14.17918,-35.60733 -18.3913,-35.60733 -4.72529,0 -3.54808,-2.26923 3.12105,-6.01624 8.26362,-4.64283 11.55776,-4.55045 10.34248,0.29005 -1.19199,4.74759 13.93798,35.6823 17.45199,35.6823 4.35177,0 2.39873,4.12331 -3.22225,6.80286 -7.98134,3.80475 -10.46904,3.49676 -9.30197,-1.15164 z m 28.28155,-11.87163 c -5.28255,-2.16137 -8.48684,-6.89255 -14.04266,-20.73421 -3.47315,-8.65298 -6.53777,-13.87892 -8.83361,-15.06347 l -3.5154,-1.81381 3.81524,-2.499 c 2.09841,-1.37446 6.12244,-2.9603 8.94235,-3.52409 l 5.1271,-1.02508 -1.05973,4.22083 c -1.22546,4.88097 5.63223,25.3207 10.62348,31.66389 3.55301,4.51545 8.76569,5.07701 15.38138,1.65707 7.63158,-3.94511 7.46091,-8.83413 -1.03117,-29.53944 -2.79713,-6.81996 -5.40501,-10.83777 -7.36765,-11.35083 -2.49129,-0.65126 -2.68788,-1.21589 -1.09246,-3.1376 2.08575,-2.5123 10.8266,-5.01218 12.31671,-3.52255 0.4953,0.49515 0.0178,1.96356 -1.06117,3.26317 -1.60267,1.93044 -0.88468,5.08324 3.92288,17.22573 8.27734,20.90627 6.49649,28.13862 -8.22063,33.38564 -6.89386,2.45781 -9.47717,2.60528 -13.90466,0.79375 z m 246.23556,-0.82573 c -8.3672,-2.98145 -10.6073,-5.40832 -6.084,-6.59082 2.5765,-0.67353 3.5215,-2.09449 3.5215,-5.29539 0,-3.636 -1.0708,-4.80316 -6.3406,-6.91099 -8.8239,-3.52938 -13.7151,-3.27641 -15.0015,0.77583 -0.5785,1.8216 -0.2714,4.09196 0.6821,5.04525 4.7298,4.72824 -1.2501,5.72058 -10.5399,1.74904 -3.225,-1.37876 -8.8728,-2.64861 -12.5506,-2.8219 -8.1233,-0.38272 -11.7358,-3.15967 -7.931,-6.09598 3.9022,-3.01093 11.7177,-36.62085 8.9179,-38.35047 -0.7685,-0.47482 -1.3973,-1.96465 -1.3973,-3.31071 0,-1.97202 1.1431,-2.23299 5.8853,-1.34364 3.237,0.60705 7.2565,1.8372 8.932,2.73365 l 3.0466,1.62993 -3.2852,2.56588 c -2.3669,1.84872 -4.2023,6.8548 -6.5663,17.91061 -3.9123,18.29787 -4.025,21.08345 -0.9013,22.28169 4.8413,1.85717 9.7705,-2.29714 22.855,-19.26172 12.8929,-16.71613 16.0031,-19.45241 18.1543,-15.97278 0.5453,0.88196 2.0497,11.69345 3.3434,24.02549 1.514,14.43388 3.1617,23.31654 4.6253,24.93306 4.2973,4.74691 0.2703,5.73754 -9.3657,2.30397 z m -4.1398,-31.58149 c 0,-4.76933 -0.5323,-8.63489 -1.1829,-8.59014 -0.6506,0.0447 -3.5522,3.03536 -6.4481,6.64579 l -5.2657,6.56439 5.2657,1.90578 c 2.8959,1.04819 5.7975,1.95976 6.4481,2.02574 0.6506,0.066 1.1829,-3.78223 1.1829,-8.55156 z m -202.57706,16.20389 c -2.59766,-3.70745 -3.35059,-10.68566 -1.15292,-10.68566 0.71622,0 2.96911,1.77371 5.00643,3.94159 2.63016,2.79875 5.36218,3.9416 9.42248,3.9416 6.5767,0 9.50356,-2.26508 9.50356,-7.35473 0,-4.23085 -3.35369,-6.25526 -15.48959,-9.34992 -13.3403,-3.4018 -17.2479,-9.62755 -12.18528,-19.41424 2.5619,-4.95252 7.5667,-7.32633 18.52219,-8.78521 l 7.40761,-0.98645 2.44397,4.72447 c 3.0001,5.79959 0.78975,7.81776 -4.65564,4.25099 -7.18115,-4.70365 -16.54648,-2.10343 -16.54648,4.594 0,4.53308 3.08319,6.43665 14.33106,8.84807 24.62666,5.2797 18.79071,29.77957 -7.09369,29.77957 -5.50615,0 -7.59846,-0.77065 -9.5137,-3.50408 z m 50.55986,-5.66493 c -0.56089,-0.90726 -0.29854,-2.09521 0.583,-2.63988 1.78982,-1.10574 2.11243,-19.19665 0.57122,-32.0254 l -1.00434,-8.35994 -4.09615,0.47675 c -2.64318,0.30766 -4.83,2.0146 -6.16518,4.81249 -3.05982,6.41157 -5.30225,5.29462 -4.74789,-2.36495 l 0.485,-6.70071 18.73104,-1.34735 c 20.47335,-1.47269 21.41576,-1.15396 21.46271,7.25975 0.0294,5.42563 -1.98073,5.53614 -5.41422,0.29756 -1.76696,-2.6958 -3.7934,-3.87506 -6.09594,-3.54743 l -3.44892,0.49075 0.48865,17.34302 c 0.3425,12.16249 1.20479,18.44353 2.88611,21.02724 1.31862,2.02633 2.02092,4.06062 1.56077,4.52065 -1.73397,1.73334 -14.80505,2.36014 -15.79586,0.75745 z m 67.7717,-0.56319 -3.0211,-1.75313 2.598,-1.89913 c 2.7686,-2.02358 8.4128,-33.69865 6.7684,-37.98237 -1.3593,-3.54141 -6.7915,-2.61407 -10.9502,1.86937 -2.0956,2.25953 -4.2269,3.43454 -4.736,2.61116 -1.1188,-1.8097 1.801,-13.05114 3.3676,-12.96493 0.6098,0.0335 9.2705,1.30245 19.2462,2.81974 l 18.1374,2.75869 0.5093,5.26395 c 0.7252,7.49719 -2.0297,9.49372 -5.0485,3.65857 -2.4548,-4.74583 -6.4465,-7.38563 -8.8879,-5.87749 -1.7182,1.06168 -2.771,6.38198 -4.6668,23.59138 -1.3276,12.05035 -1.2077,14.34064 0.8093,15.46912 1.3022,0.72854 1.9562,1.99049 1.4531,2.80434 -1.2553,2.03032 -11.8775,1.77853 -15.5788,-0.36927 z m -34.04241,-1.35725 c -2.06325,-1.3792 -2.01281,-1.78922 0.39446,-3.20748 2.39196,-1.40937 2.76001,-4.2252 2.76001,-21.12439 0,-13.55265 -0.56611,-19.68687 -1.85648,-20.11684 -1.0948,-0.36481 -1.33403,-1.46357 -0.58297,-2.67822 0.86812,-1.40429 3.49106,-1.80977 8.24289,-1.27433 8.57343,0.966 9.62677,1.90667 6.2786,5.60533 -2.1234,2.34546 -2.61918,6.35045 -2.61918,21.1629 0,12.61063 0.57527,18.46159 1.85658,18.88856 1.02116,0.34022 1.33383,1.46359 0.69566,2.49635 -1.40701,2.27566 -11.87986,2.44697 -15.16957,0.24812 z"
       id="path1272" />
  </g>
</svg>
