<svg width="48" viewBox="0 0 26 11" fill="none" xmlns="http://www.w3.org/2000/svg">
<path d="M3.84 0.939999C3.86667 0.926666 3.90667 0.92 3.96 0.92L5.76 0.88C5.78667 0.88 5.83333 0.873333 5.9 0.86C5.96667 0.846666 6.00667 0.84 6.02 0.84H6.08C6.12 0.84 6.20667 0.893333 6.34 1C6.47333 1.10667 6.54 1.2 6.54 1.28L6.68 1.64L6.46 1.94L6.5 1.98L6.44 2.42C6.41333 2.42 6.38 2.45333 6.34 2.52L6.38 2.54C6.3 2.56667 6.21333 2.63333 6.12 2.74C6.04 2.83333 5.96 2.94667 5.88 3.08C5.8 3.2 5.72 3.32 5.64 3.44C5.57333 3.56 5.51333 3.64667 5.46 3.7V3.72C5.46 3.78667 5.41333 3.9 5.32 4.06C5.22667 4.20667 5.18 4.32667 5.18 4.42L4.7 5.5C4.66 5.52667 4.58667 5.6 4.48 5.72C4.37333 5.82667 4.32667 5.89333 4.34 5.92V5.98L4.42 5.92L4.44 5.98C4.38667 6.00667 4.34667 6.05333 4.32 6.12C4.29333 6.18667 4.26 6.24 4.22 6.28L4.32 6.3L4.18 6.38V6.5C4.14 6.54 4.08667 6.56 4.02 6.56L3.96 6.7C3.93333 6.74 3.89333 6.80667 3.84 6.9C3.78667 6.98 3.73333 7.06667 3.68 7.16C3.62667 7.24 3.58 7.32667 3.54 7.42C3.5 7.5 3.48 7.56 3.48 7.6H3.56C3.62667 7.6 3.68 7.60667 3.72 7.62C3.77333 7.62 3.82667 7.62 3.88 7.62C3.96 7.62 4.05333 7.6 4.16 7.56L5.4 7.64L5.38 7.7L5.5 7.64C5.51333 7.64 5.53333 7.65333 5.56 7.68C5.58667 7.69333 5.61333 7.7 5.64 7.7H6.14C6.28667 7.7 6.45333 7.76 6.64 7.88C6.84 8 6.97333 8.14 7.04 8.3L7.22 8.16L7.34 8.52V8.82C7.24667 8.82 7.16 8.83333 7.08 8.86C7.01333 8.88667 6.94667 8.9 6.88 8.9H6.78L6.82 8.84L6.74 8.82V8.76C6.67333 8.76 6.59333 8.77333 6.5 8.8C6.42 8.82667 6.33333 8.84 6.24 8.84C6.17333 8.84 6.09333 8.84 6 8.84C5.92 8.82667 5.84667 8.82 5.78 8.82H5.6C5.6 8.83333 5.58667 8.84 5.56 8.84C5.53333 8.84 5.51333 8.84 5.5 8.84C5.46 8.84 5.41333 8.84 5.36 8.84C5.32 8.82667 5.28 8.82 5.24 8.82C5.14667 8.82 5.01333 8.82667 4.84 8.84C4.66667 8.85333 4.51333 8.88667 4.38 8.94L4.3 8.98C4.15333 8.98 4.00667 8.97333 3.86 8.96C3.72667 8.93333 3.58667 8.92 3.44 8.92C3.28 8.92 3.12667 8.94667 2.98 9L2.9 9.02C2.88667 9.03333 2.86 9.04667 2.82 9.06C2.79333 9.08667 2.76 9.1 2.72 9.1L1.74 9.06L1.44 9.08L1.16 9C1.16 8.97333 1.08 8.90667 0.92 8.8C0.773333 8.69333 0.666667 8.56 0.6 8.4L0.66 8.1V7.88C0.66 7.76 0.686667 7.67333 0.74 7.62C0.793333 7.55333 0.866667 7.48 0.96 7.4C1.05333 7.32 1.14667 7.21333 1.24 7.08C1.34667 6.94667 1.45333 6.75333 1.56 6.5L1.68 6.32L1.8 6.2L1.98 5.82L2.04 5.84L2.14 5.8L2.16 5.7H2.08L2.24 5.42L2.36 5.24L2.38 5.02L2.5 4.98L2.54 5L2.64 4.96L2.6 4.86L2.7 4.64L2.94 4.48C2.98 4.44 3.02 4.38667 3.06 4.32C3.1 4.25333 3.13333 4.19333 3.16 4.14V4.1C3.33333 3.72667 3.52 3.39333 3.72 3.1C3.92 2.80667 4.14 2.45333 4.38 2.04H4.22C4.07333 2.04 3.98 2.04 3.94 2.04C3.91333 2.02667 3.84667 2.02 3.74 2.02C3.71333 2.02 3.67333 2.04 3.62 2.08C3.56667 2.10667 3.52 2.12 3.48 2.12C3.45333 2.12 3.44 2.11333 3.44 2.1H2.86L2.56 2.04C2.54667 2.02667 2.52 2.02 2.48 2.02C2.44 2.02 2.38667 2.02667 2.32 2.04C2.26667 2.05333 2.22667 2.06 2.2 2.06H2.18L2.14 2.1C2.12667 2.11333 2.1 2.12 2.06 2.12L1.88 2.06C1.85333 2.04667 1.81333 2.04 1.76 2.04C1.74667 2.05333 1.72667 2.06 1.7 2.06C1.63333 2.06 1.56 2.00667 1.48 1.9C1.41333 1.78 1.34667 1.68667 1.28 1.62L1.04 1.44C1.04 1.42667 1.02667 1.36667 1 1.26L0.96 1.18C0.96 1.11333 0.986667 1.08 1.04 1.08C1.09333 1.08 1.14 1.06 1.18 1.02H2.18C2.28667 1.03333 2.35333 1.04667 2.38 1.06C2.40667 1.06 2.44667 1.07333 2.5 1.1C2.54 1.1 2.56 1.1 2.56 1.1C2.57333 1.08667 2.58667 1.07333 2.6 1.06C2.61333 1.07333 2.64 1.08 2.68 1.08C2.70667 1.08 2.73333 1.08 2.76 1.08C2.8 1.06667 2.83333 1.06 2.86 1.06C2.88667 1.06 2.91333 1.06667 2.94 1.08C2.96667 1.08 2.99333 1.08 3.02 1.08C3.06 1.08 3.08 1.06667 3.08 1.04L3.14 1.1C3.16667 1.12667 3.19333 1.14 3.22 1.14C3.24667 1.11333 3.3 1.09333 3.38 1.08C3.46 1.05333 3.53333 1.04 3.6 1.04L3.56 0.939999H3.64H3.84ZM1.72 6.8C1.69333 6.8 1.63333 6.82667 1.54 6.88C1.44667 6.93333 1.39333 6.98667 1.38 7.04L1.16 7.52L1.14 7.68C1.15333 7.64 1.18 7.58667 1.22 7.52C1.26 7.45333 1.3 7.38667 1.34 7.32C1.39333 7.24 1.44 7.17333 1.48 7.12C1.52 7.06667 1.55333 7.03333 1.58 7.02L1.7 6.9L1.72 6.8ZM3.2 4.22C3.18667 4.22 3.18 4.22 3.18 4.22C3.18 4.20667 3.17333 4.2 3.16 4.2C3.12 4.2 3.1 4.23333 3.1 4.3C3.1 4.35333 3.12 4.38 3.16 4.38C3.2 4.38 3.22 4.34667 3.22 4.28C3.22 4.24 3.21333 4.22 3.2 4.22ZM1.86 6.56C1.84667 6.56 1.84 6.56 1.84 6.56C1.84 6.54667 1.83333 6.54 1.82 6.54C1.79333 6.54 1.78 6.56667 1.78 6.62C1.78 6.63333 1.78 6.65333 1.78 6.68C1.79333 6.70667 1.81333 6.72 1.84 6.72C1.88 6.72 1.9 6.68667 1.9 6.62C1.9 6.58 1.88667 6.56 1.86 6.56ZM2.78 5.16C2.79333 5.14667 2.8 5.12667 2.8 5.1C2.8 5.08667 2.79333 5.08 2.78 5.08C2.78 5.09333 2.77333 5.1 2.76 5.1C2.73333 5.12667 2.72 5.14 2.72 5.14C2.72 5.19333 2.73333 5.22 2.76 5.22V5.2C2.77333 5.18667 2.78 5.17333 2.78 5.16ZM12.1292 6.88C12.1026 6.85333 12.0759 6.80667 12.0492 6.74C12.0359 6.66 12.0159 6.58 11.9892 6.5L11.8092 5.96L11.7292 5.88C11.7292 5.82667 11.7159 5.74667 11.6892 5.64C11.6626 5.52 11.6292 5.4 11.5892 5.28C11.5626 5.16 11.5292 5.05333 11.4892 4.96C11.4626 4.86667 11.4426 4.80667 11.4292 4.78C11.4159 4.76667 11.3892 4.68667 11.3492 4.54C11.3092 4.39333 11.2692 4.23333 11.2292 4.06C11.1892 3.87333 11.1492 3.70667 11.1092 3.56C11.0826 3.4 11.0626 3.30667 11.0492 3.28L10.9892 3.96C10.9626 3.98667 10.9492 4.01333 10.9492 4.04C10.9492 4.05333 10.9359 4.08 10.9092 4.12L10.9292 4.52L10.8092 4.84L10.7292 4.94C10.7292 4.98 10.7226 5.04 10.7092 5.12C10.6959 5.18667 10.6892 5.24667 10.6892 5.3V5.34V5.42C10.6892 5.47333 10.6826 5.53333 10.6692 5.6C10.6559 5.66667 10.6492 5.73333 10.6492 5.8L10.5492 5.94L10.5092 6.28C10.4959 6.34667 10.4826 6.4 10.4692 6.44C10.4692 6.48 10.4692 6.51333 10.4692 6.54L10.3892 7L10.2692 7.02L10.1892 7.12L10.2092 7.18L10.1692 7.26L10.3492 7.16L10.3892 7.22V7.46L10.4692 7.54L10.3692 7.84L10.4092 7.98L10.3292 8.08L10.1892 8.1L10.1292 8.32L9.94922 8.52L10.0292 8.62H9.74922L9.68922 8.36L9.62922 8.28L9.46922 8.38C9.46922 8.39333 9.46255 8.40667 9.44922 8.42C9.44922 8.42 9.44922 8.42667 9.44922 8.44C9.44922 8.46667 9.44922 8.5 9.44922 8.54C9.46255 8.58 9.47589 8.60667 9.48922 8.62H9.38922L9.04922 8.48L8.68922 8.4C8.64922 8.36 8.62255 8.27333 8.60922 8.14C8.59589 7.99333 8.57589 7.90667 8.54922 7.88L8.58922 7.74C8.60255 7.7 8.61589 7.66667 8.62922 7.64C8.64255 7.6 8.64922 7.56667 8.64922 7.54V7.4C8.64922 7.36 8.65589 7.33333 8.66922 7.32L8.74922 7.16V7.08L8.84922 6.92V6.74C8.84922 6.7 8.85589 6.62667 8.86922 6.52C8.89589 6.4 8.91589 6.32 8.92922 6.28L9.00922 6.02V6C9.00922 5.94667 9.01589 5.88 9.02922 5.8C9.05589 5.72 9.07589 5.66 9.08922 5.62L9.04922 5.38C9.04922 5.34 9.07589 5.29333 9.12922 5.24L9.20922 5.16L9.14922 5.06V4.98C9.16255 4.96667 9.18255 4.94 9.20922 4.9C9.24922 4.84667 9.28922 4.79333 9.32922 4.74C9.36922 4.67333 9.40255 4.62 9.42922 4.58C9.45589 4.52667 9.46922 4.48667 9.46922 4.46L9.48922 4.38L9.36922 4.4C9.42255 4.08 9.48922 3.78 9.56922 3.5C9.64922 3.22 9.68922 2.88667 9.68922 2.5L9.86922 2.1L9.92922 1.88C9.92922 1.82667 9.94255 1.74 9.96922 1.62C10.0092 1.5 10.0559 1.37333 10.1092 1.24C10.1626 1.10667 10.2159 0.98 10.2692 0.86C10.3226 0.74 10.3692 0.653333 10.4092 0.6L10.9092 0.54C11.0426 0.566666 11.2159 0.739999 11.4292 1.06C11.6426 1.36667 11.8359 1.78 12.0092 2.3L12.0692 2.28C12.0692 2.56 12.1359 2.82 12.2692 3.06L12.3892 3.24L12.4492 3.6L12.5092 3.74C12.5226 3.83333 12.5492 3.88 12.5892 3.88C12.6559 4.10667 12.7092 4.31333 12.7492 4.5C12.7892 4.67333 12.8626 4.87333 12.9692 5.1L12.9892 5.04C13.0559 4.92 13.1426 4.82 13.2492 4.74C13.3692 4.64667 13.4292 4.53333 13.4292 4.4L13.5692 4.04L13.6292 3.98C13.6559 3.96667 13.6692 3.95333 13.6692 3.94C13.6826 3.92667 13.6959 3.91333 13.7092 3.9L13.8892 3.54C14.0359 3.26 14.1559 3.02667 14.2492 2.84C14.3426 2.65333 14.4226 2.48667 14.4892 2.34C14.5692 2.19333 14.6492 2.04 14.7292 1.88C14.8092 1.72 14.9026 1.52 15.0092 1.28C14.9959 1.28 14.9892 1.26667 14.9892 1.24C14.9892 1.09333 15.0492 0.966666 15.1692 0.86C15.3026 0.74 15.4492 0.666666 15.6092 0.64C15.6226 0.64 15.6359 0.646666 15.6492 0.659999C15.6626 0.659999 15.6826 0.659999 15.7092 0.659999C15.7759 0.659999 15.8159 0.64 15.8292 0.6C15.8559 0.546666 15.8892 0.52 15.9292 0.52L15.9892 0.479999C16.0026 0.466666 16.0092 0.453333 16.0092 0.439999C16.0092 0.413333 16.0159 0.393333 16.0292 0.38L16.1892 0.4L16.5092 0.36C16.6159 0.426666 16.7492 0.5 16.9092 0.579999C17.0692 0.659999 17.1492 0.74 17.1492 0.82L17.0892 0.899999L17.1492 1.04L17.1092 1.08L17.0692 1.26C17.0692 1.28667 17.0759 1.32667 17.0892 1.38C17.1026 1.42 17.1159 1.46667 17.1292 1.52L17.1892 1.72C17.1892 1.76 17.2092 1.86667 17.2492 2.04C17.3026 2.21333 17.3359 2.32 17.3492 2.36L17.2692 2.98V3.74L17.3092 4.12L17.2092 4.32C17.1959 4.36 17.1892 4.42 17.1892 4.5L17.2092 4.56L17.1692 4.86H17.3492V5L17.2292 5.08L17.2492 5.16L17.3492 5.12L17.3092 5.26C17.2959 5.28667 17.2892 5.3 17.2892 5.3C17.2892 5.32667 17.3026 5.34667 17.3292 5.36C17.3559 5.37333 17.3759 5.39333 17.3892 5.42L17.2692 5.76C17.2692 5.77333 17.2559 5.83333 17.2292 5.94L17.1692 6.06L17.3292 6L17.3492 6.1L17.2892 6.22L17.3092 6.3H17.4092C17.4359 6.3 17.4559 6.30667 17.4692 6.32L17.5092 6.4L17.3892 6.78C17.3626 6.80667 17.3426 6.86 17.3292 6.94C17.3292 7.02 17.3292 7.08 17.3292 7.12L17.6092 7.58C17.5826 7.64667 17.5492 7.7 17.5092 7.74L17.4292 7.84L17.5692 7.82L17.6092 7.92L17.5292 8.1C17.5426 8.1 17.5626 8.10667 17.5892 8.12C17.6292 8.13333 17.6626 8.14 17.6892 8.14V8.22L17.5292 8.32L17.6292 9.5C17.6026 9.52667 17.5826 9.56 17.5692 9.6L17.5292 9.66C17.5159 9.66 17.4759 9.67333 17.4092 9.7C17.3559 9.74 17.2892 9.77333 17.2092 9.8C17.1426 9.84 17.0759 9.87333 17.0092 9.9C16.9559 9.94 16.9292 9.96 16.9292 9.96V10L16.8492 10.02L16.1692 9.94C16.1292 9.98 16.0959 9.99333 16.0692 9.98C16.0426 9.96667 16.0292 9.98667 16.0292 10.04L15.9892 9.96L15.7292 9.84L15.5092 9.52L15.3092 8.68L15.5092 8.28C15.4692 8.09333 15.4426 7.88 15.4292 7.64C15.4159 7.4 15.4092 7.16667 15.4092 6.94V6.12V5.86L15.4492 5.58L15.3692 5.56C15.3692 5.37333 15.3759 5.19333 15.3892 5.02C15.4026 4.83333 15.4092 4.65333 15.4092 4.48C15.4092 4.33333 15.4026 4.2 15.3892 4.08C15.3759 3.96 15.3559 3.84667 15.3292 3.74L14.7492 4.76C14.6692 4.98667 14.5892 5.14 14.5092 5.22C14.4292 5.28667 14.3426 5.43333 14.2492 5.66C14.1826 5.79333 14.1159 5.92667 14.0492 6.06C13.9826 6.18 13.9026 6.29333 13.8092 6.4L13.5292 6.84C13.4626 6.88 13.3892 6.92667 13.3092 6.98C13.2292 7.02 13.1559 7.06 13.0892 7.1C13.0226 7.14 12.9626 7.18 12.9092 7.22C12.8692 7.24667 12.8559 7.26 12.8692 7.26C12.7892 7.26 12.6626 7.22 12.4892 7.14C12.3159 7.04667 12.1959 6.96 12.1292 6.88ZM9.68922 3.66C9.66255 3.74 9.63589 3.82667 9.60922 3.92C9.59589 4.01333 9.58255 4.1 9.56922 4.18L9.70922 4.14L9.74922 3.54L9.68922 3.66ZM10.4292 6.08L10.3492 6.14C10.3492 6.16667 10.3359 6.22 10.3092 6.3C10.2959 6.38 10.2892 6.44 10.2892 6.48V6.5C10.3826 6.44667 10.4292 6.34667 10.4292 6.2V6.08ZM17.3492 4.34C17.4026 4.34 17.4292 4.37333 17.4292 4.44C17.4292 4.49333 17.4026 4.52 17.3492 4.52C17.3226 4.52 17.3092 4.48667 17.3092 4.42C17.3092 4.38 17.3226 4.35333 17.3492 4.34ZM10.3492 5.92L10.3292 6L10.4692 5.9L10.4092 5.84L10.3492 5.92ZM17.4092 4.68V4.7C17.4092 4.74 17.3959 4.76 17.3692 4.76C17.3559 4.76 17.3492 4.73333 17.3492 4.68C17.3492 4.65333 17.3559 4.64 17.3692 4.64C17.3692 4.64 17.3826 4.65333 17.4092 4.68ZM19.0613 8.04C19.1946 8 19.3546 7.98 19.5413 7.98C19.9146 7.98 20.2613 8.00667 20.5813 8.06C20.9013 8.11333 21.1946 8.14667 21.4613 8.16L21.6213 8.06L22.1613 8.02C22.1746 8.03333 22.1946 8.04 22.2213 8.04C22.2746 8.04 22.3146 8.02 22.3413 7.98C22.3679 7.94 22.4013 7.92 22.4413 7.92C22.5613 7.92 22.7079 7.89333 22.8813 7.84C23.0546 7.78667 23.1679 7.72 23.2213 7.64C23.3146 7.33333 23.3813 7.02667 23.4212 6.72C23.4613 6.41333 23.4813 6.14667 23.4813 5.92L23.3613 5.68C23.3613 5.61333 23.3079 5.56667 23.2013 5.54C23.1079 5.5 23.0479 5.48 23.0213 5.48L22.8013 5.4C22.6813 5.4 22.5746 5.38 22.4813 5.34C22.4013 5.3 22.3079 5.26 22.2013 5.22C22.1079 5.18 21.9879 5.14 21.8413 5.1C21.6946 5.06 21.5079 5.04 21.2813 5.04H21.1013C21.0479 5.04 21.0213 5.01333 21.0213 4.96C20.9146 4.85333 20.7946 4.78667 20.6613 4.76C20.5413 4.73333 20.4346 4.66 20.3413 4.54C20.3146 4.52667 20.2813 4.47333 20.2413 4.38C20.2013 4.27333 20.1613 4.16 20.1213 4.04C20.0813 3.90667 20.0479 3.78 20.0213 3.66C19.9946 3.54 19.9813 3.46 19.9813 3.42C20.0479 3.42 20.0813 3.37333 20.0813 3.28C20.0813 3.25333 20.0746 3.22667 20.0613 3.2C20.0613 3.17333 20.0613 3.14667 20.0613 3.12C20.0613 3.09333 20.0813 3.06 20.1213 3.02L20.2013 2.96C20.2546 2.90667 20.2679 2.86 20.2413 2.82C20.2279 2.76667 20.2479 2.72667 20.3013 2.7V2.88L20.3413 2.86L20.8013 1.42L21.4213 0.759999L21.7813 0.54L22.1613 0.68C22.2546 0.68 22.3613 0.66 22.4813 0.619999C22.6146 0.58 22.7346 0.56 22.8413 0.56C23.0279 0.56 23.2479 0.593333 23.5013 0.659999C23.7546 0.726666 24.0013 0.813333 24.2413 0.92C24.4813 1.01333 24.6946 1.11333 24.8813 1.22C25.0813 1.31333 25.2146 1.38667 25.2813 1.44C25.2679 1.53333 25.2479 1.58 25.2213 1.58C25.1946 1.58 25.1813 1.59333 25.1813 1.62C25.1813 1.66 25.1879 1.69333 25.2013 1.72C25.2146 1.73333 25.2213 1.76 25.2213 1.8C25.2213 1.84 25.1879 1.88667 25.1213 1.94C25.0546 1.99333 24.9946 2.02 24.9413 2.02L23.7813 1.92H23.7213C23.6546 1.92 23.5479 1.92 23.4013 1.92C23.2679 1.90667 23.1679 1.9 23.1013 1.9C22.9013 1.9 22.7213 1.95333 22.5613 2.06C22.4013 2.16667 22.2613 2.31333 22.1413 2.5C22.0346 2.67333 21.9479 2.87333 21.8813 3.1C21.8279 3.31333 21.8013 3.54 21.8013 3.78C21.8013 3.82 21.8279 3.86 21.8813 3.9C21.9346 3.94 21.9946 3.97333 22.0613 4C22.1279 4.01333 22.1946 4.02667 22.2613 4.04C22.3279 4.05333 22.3813 4.06 22.4213 4.06L22.5013 4.08C22.5946 4.14667 22.6546 4.19333 22.6813 4.22C22.7079 4.24667 22.7546 4.26 22.8213 4.26H22.9013L23.1413 4.24L23.4813 4.36C23.5079 4.37333 23.5546 4.38 23.6213 4.38H23.8413C24.0546 4.46 24.2613 4.54667 24.4613 4.64C24.6613 4.73333 24.8346 4.86667 24.9813 5.04C25.1413 5.2 25.2679 5.41333 25.3613 5.68C25.4546 5.93333 25.5013 6.26 25.5013 6.66C25.5013 6.78 25.4946 6.9 25.4813 7.02C25.4679 7.12667 25.4413 7.24667 25.4013 7.38L25.3813 7.42C25.3546 7.44667 25.3079 7.50667 25.2413 7.6C25.1746 7.69333 25.1279 7.74667 25.1013 7.76L25.0213 7.98L24.9213 8.06L24.1413 9.08C23.9679 9.10667 23.8013 9.14667 23.6413 9.2C23.4946 9.26667 23.3413 9.3 23.1813 9.3C23.1546 9.3 23.1013 9.28667 23.0213 9.26C22.9146 9.28667 22.8146 9.3 22.7213 9.3C22.6279 9.3 22.5346 9.3 22.4413 9.3C22.3079 9.3 22.0746 9.28667 21.7413 9.26C21.4079 9.23333 21.0546 9.19333 20.6813 9.14C20.3213 9.1 19.9679 9.05333 19.6213 9C19.2879 8.96 19.0413 8.92 18.8813 8.88C18.8813 8.84 18.8946 8.82 18.9213 8.82C18.9613 8.80667 18.9813 8.77333 18.9813 8.72C18.9813 8.70667 18.9746 8.7 18.9613 8.7H18.9412C18.9146 8.7 18.8946 8.68 18.8813 8.64C18.9079 8.64 18.9479 8.63333 19.0013 8.62C19.0679 8.60667 19.1013 8.58667 19.1013 8.56L19.0413 8.42L19.0813 8.36C19.0946 8.33333 19.1079 8.31333 19.1213 8.3C19.1346 8.28667 19.1413 8.27333 19.1413 8.26C19.1413 8.19333 19.1279 8.16667 19.1013 8.18C19.0746 8.19333 19.0613 8.14667 19.0613 8.04ZM20.4613 2.1C20.4613 2.12667 20.4413 2.21333 20.4013 2.36C20.3746 2.49333 20.3546 2.57333 20.3413 2.6C20.3013 2.6 20.2813 2.58 20.2813 2.54C20.2813 2.52667 20.3013 2.46 20.3413 2.34C20.3813 2.20667 20.4213 2.12667 20.4613 2.1ZM20.6013 1.58C20.6013 1.59333 20.6079 1.6 20.6213 1.6H20.6813L20.5013 1.9C20.4746 1.9 20.4613 1.88 20.4613 1.84C20.4613 1.81333 20.4746 1.77333 20.5013 1.72C20.5413 1.65333 20.5746 1.60667 20.6013 1.58Z" fill="black"/>
</svg>
