<svg width="33px" height="33px" viewBox="-0.5 0 25 25" fill="none" xmlns="http://www.w3.org/2000/svg" stroke="#ffffff" stroke-width="1.7"><g id="SVGRepo_bgCarrier" stroke-width="0"></g><g id="SVGRepo_tracerCarrier" stroke-linecap="round" stroke-linejoin="round"></g><g id="SVGRepo_iconCarrier"> <path d="M11.99 18C15.0276 18 17.49 15.5376 17.49 12.5C17.49 9.46243 15.0276 7 11.99 7C8.95242 7 6.48999 9.46243 6.48999 12.5C6.48999 15.5376 8.95242 18 11.99 18Z" stroke="#ffffff" stroke-miterlimit="10" stroke-linecap="round" stroke-linejoin="round"></path> <path d="M13.2 4.2L14.28 3C15.69 3.58 15.69 3.58 17.1 4.17L17.02 5.78C16.97 6.74 17.76 7.53 18.72 7.48L20.33 7.4C20.91 8.81 20.91 8.81 21.5 10.22L20.3 11.3C19.59 11.94 19.59 13.06 20.3 13.7L21.5 14.78C20.92 16.19 20.92 16.19 20.33 17.6L18.72 17.52C17.76 17.47 16.97 18.26 17.02 19.22L17.1 20.83C15.69 21.41 15.69 21.41 14.28 22L13.2 20.8C12.56 20.09 11.44 20.09 10.8 20.8L9.72 22C8.31 21.42 8.30999 21.42 6.89999 20.83L6.98 19.22C7.03 18.26 6.24 17.47 5.28 17.52L3.67 17.6C3.09 16.19 3.09 16.19 2.5 14.78L3.7 13.7C4.41 13.06 4.41 11.94 3.7 11.3L2.5 10.22C3.08 8.81 3.08 8.81 3.67 7.4L5.28 7.48C6.24 7.53 7.03 6.74 6.98 5.78L6.89999 4.17C8.30999 3.59 8.31 3.59 9.72 3L10.8 4.2C11.44 4.91 12.55 4.91 13.2 4.2Z" stroke="#ffffff" stroke-miterlimit="10" stroke-linecap="round" stroke-linejoin="round"></path> </g></svg>
